<svg width="10" height="10" viewBox="0 0 10 10" fill="none" xmlns="http://www.w3.org/2000/svg">
<g clip-path="url(#clip0_2403_253)">
<path d="M2.984 10C2.21556 10.0065 1.47342 9.72048 0.908003 9.20004L0.872003 9.16804C0.59777 8.91625 0.37883 8.61024 0.22906 8.2694C0.0792889 7.92857 0.00195312 7.56033 0.00195312 7.18804C0.00195312 6.81575 0.0792889 6.44752 0.22906 6.10668C0.37883 5.76584 0.59777 5.45983 0.872003 5.20804L6 0.568041C6.40212 0.202078 6.92629 -0.000732422 7.47 -0.000732422C8.01372 -0.000732422 8.53789 0.202078 8.94 0.568041C9.14355 0.747709 9.30738 0.967862 9.42103 1.21443C9.53467 1.46101 9.59563 1.72858 9.6 2.00004C9.59919 2.26633 9.54334 2.52957 9.43596 2.77324C9.32858 3.01692 9.17198 3.23576 8.976 3.41604L4.152 7.76404C3.91288 7.98361 3.59986 8.10511 3.27522 8.10436C2.95058 8.10362 2.63812 7.9807 2.4 7.76004C2.28041 7.65096 2.18489 7.51814 2.11953 7.37006C2.05417 7.22199 2.02041 7.0619 2.02041 6.90004C2.02041 6.73818 2.05417 6.5781 2.11953 6.43002C2.18489 6.28194 2.28041 6.14912 2.4 6.04004L6.908 2.00004L7.44 2.59604L2.94 6.62804C2.90371 6.66182 2.87469 6.70267 2.85475 6.74806C2.8348 6.79346 2.82434 6.84246 2.824 6.89204C2.82474 6.94349 2.83614 6.99423 2.85748 7.04104C2.87882 7.08786 2.90965 7.12974 2.948 7.16404C3.03869 7.24696 3.15712 7.29294 3.28 7.29294C3.40288 7.29294 3.52132 7.24696 3.612 7.16404L8.436 2.84404C8.55199 2.73869 8.64466 2.61025 8.70808 2.46697C8.7715 2.32369 8.80426 2.16873 8.80426 2.01204C8.80426 1.85535 8.7715 1.70039 8.70808 1.55711C8.64466 1.41383 8.55199 1.28539 8.436 1.18004C8.1839 0.940318 7.85056 0.804654 7.50271 0.800204C7.15486 0.795754 6.81815 0.922846 6.56 1.15604L1.412 5.78404C1.21638 5.96104 1.06002 6.17707 0.953008 6.41821C0.845997 6.65934 0.790709 6.92023 0.790709 7.18404C0.790709 7.44785 0.845997 7.70874 0.953008 7.94987C1.06002 8.19101 1.21638 8.40704 1.412 8.58404L1.448 8.61604C1.86468 8.99747 2.4091 9.20903 2.974 9.20903C3.5389 9.20903 4.08332 8.99747 4.5 8.61604L9.332 4.27604L9.868 4.87204L5.048 9.20004C4.48649 9.71902 3.74861 10.005 2.984 10Z" fill="#0A0C1A" fill-opacity="0.5"/>
</g>
<defs>
<clipPath id="clip0_2403_253">
<rect width="10" height="10" fill="white"/>
</clipPath>
</defs>
</svg>
