<svg width="12" height="11" viewBox="0 0 12 11" fill="none" xmlns="http://www.w3.org/2000/svg">
<path d="M9.5 1.83337H2.5C1.94772 1.83337 1.5 2.24378 1.5 2.75004V9.16671C1.5 9.67297 1.94772 10.0834 2.5 10.0834H9.5C10.0523 10.0834 10.5 9.67297 10.5 9.16671V2.75004C10.5 2.24378 10.0523 1.83337 9.5 1.83337Z" stroke="white" stroke-linecap="round" stroke-linejoin="round"/>
<path d="M9.5 1.83325H2.5C1.94772 1.83325 1.5 2.24366 1.5 2.74992V9.16659C1.5 9.67285 1.94772 10.0833 2.5 10.0833H9.5C10.0523 10.0833 10.5 9.67285 10.5 9.16659V2.74992C10.5 2.24366 10.0523 1.83325 9.5 1.83325Z" stroke="#0A0C1A" stroke-opacity="0.5" stroke-linecap="round" stroke-linejoin="round"/>
<path d="M8 0.916626V2.74996" stroke="white" stroke-linecap="round" stroke-linejoin="round"/>
<path d="M4 0.916626V2.74996" stroke="white" stroke-linecap="round" stroke-linejoin="round"/>
<path d="M8 0.916748V2.75008" stroke="#0A0C1A" stroke-opacity="0.5" stroke-linecap="round" stroke-linejoin="round"/>
<path d="M4 0.916748V2.75008" stroke="#0A0C1A" stroke-opacity="0.5" stroke-linecap="round" stroke-linejoin="round"/>
<path d="M1.5 4.58337H10.5" stroke="white" stroke-linecap="round" stroke-linejoin="round"/>
<path d="M1.5 4.58337H10.5" stroke="#0A0C1A" stroke-opacity="0.5" stroke-linecap="round" stroke-linejoin="round"/>
</svg>
