<svg width="10" height="10" viewBox="0 0 10 10" fill="none" xmlns="http://www.w3.org/2000/svg">
<path d="M0.162 10V0.199999H4.95C6.182 0.199999 7.106 0.433333 7.722 0.899999C8.34733 1.36667 8.66 1.98267 8.66 2.748C8.66 3.26133 8.534 3.70933 8.282 4.092C8.03 4.46533 7.68467 4.75467 7.246 4.96C6.80733 5.16533 6.30333 5.268 5.734 5.268L6 4.694C6.616 4.694 7.162 4.79667 7.638 5.002C8.114 5.198 8.48267 5.492 8.744 5.884C9.01467 6.276 9.15 6.75667 9.15 7.326C9.15 8.166 8.81867 8.824 8.156 9.3C7.49333 9.76667 6.518 10 5.23 10H0.162ZM2.416 8.292H5.062C5.65 8.292 6.09333 8.19867 6.392 8.012C6.7 7.816 6.854 7.508 6.854 7.088C6.854 6.67733 6.7 6.374 6.392 6.178C6.09333 5.97267 5.65 5.87 5.062 5.87H2.248V4.218H4.67C5.22067 4.218 5.64067 4.12467 5.93 3.938C6.22867 3.742 6.378 3.448 6.378 3.056C6.378 2.67333 6.22867 2.38867 5.93 2.202C5.64067 2.006 5.22067 1.908 4.67 1.908H2.416V8.292Z" fill="#0A0C1A" fill-opacity="0.6"/>
</svg>
