<svg width="14" height="15" viewBox="0 0 14 15" fill="none" xmlns="http://www.w3.org/2000/svg">
<path fill-rule="evenodd" clip-rule="evenodd" d="M3.83459 5.36696C4.11708 5.09904 4.11708 4.66505 3.83459 4.39712L3.8251 4.388C3.54261 4.12007 3.08494 4.12007 2.80245 4.388L0.211867 6.84437C-0.0706225 7.11229 -0.0706225 7.54713 0.211867 7.81505L2.80245 10.2713C3.08494 10.5392 3.54261 10.5392 3.8251 10.2713L3.83459 10.2623C4.11708 9.99438 4.11708 9.56038 3.83459 9.29246L2.27688 7.81505C1.99439 7.54713 1.99439 7.11229 2.27688 6.84437L3.83459 5.36696ZM13.7881 6.84437L11.1976 4.388C10.9158 4.12007 10.4574 4.12007 10.1749 4.388L10.1654 4.39712C9.88292 4.66505 9.88292 5.09904 10.1654 5.36696L11.7238 6.84437C12.0063 7.11229 12.0063 7.54713 11.7238 7.81505L10.1654 9.29246C9.88292 9.56038 9.88292 9.99438 10.1654 10.2623L10.1749 10.2713C10.4574 10.5392 10.9158 10.5392 11.1976 10.2713L13.7881 7.81505C14.0706 7.54713 14.0706 7.11229 13.7881 6.84437ZM9.43847 3.97491L5.7083 11.473C5.58746 11.7087 5.37545 12 5.10192 12H5.08744C4.5556 12 4.209 11.3214 4.44417 10.8638L8.15263 3.43675C8.27347 3.20172 8.72139 3.01741 8.72139 3.01741V3C9.44499 3 9.67292 3.51737 9.43847 3.97491Z" fill="#0A0C1A" fill-opacity="0.6"/>
</svg>
