<svg width="16" height="13" viewBox="0 0 16 13" fill="none" xmlns="http://www.w3.org/2000/svg">
<rect x="4" y="1" width="12" height="2" fill="#0A0C1A" fill-opacity="0.6"/>
<rect x="4" y="6" width="12" height="2" fill="#0A0C1A" fill-opacity="0.6"/>
<rect x="4" y="11" width="12" height="2" fill="#0A0C1A" fill-opacity="0.6"/>
<path d="M1.441 3V1.08L1.651 1.29H1.021V0.9H1.927V3H1.441Z" fill="#0A0C1A" fill-opacity="0.6"/>
<path d="M1.099 8V7.685L1.909 6.92C1.973 6.862 2.02 6.81 2.05 6.764C2.08 6.718 2.1 6.676 2.11 6.638C2.122 6.6 2.128 6.565 2.128 6.533C2.128 6.449 2.099 6.385 2.041 6.341C1.985 6.295 1.902 6.272 1.792 6.272C1.704 6.272 1.622 6.289 1.546 6.323C1.472 6.357 1.409 6.41 1.357 6.482L1.003 6.254C1.083 6.134 1.195 6.039 1.339 5.969C1.483 5.899 1.649 5.864 1.837 5.864C1.993 5.864 2.129 5.89 2.245 5.942C2.363 5.992 2.454 6.063 2.518 6.155C2.584 6.247 2.617 6.357 2.617 6.485C2.617 6.553 2.608 6.621 2.59 6.689C2.574 6.755 2.54 6.825 2.488 6.899C2.438 6.973 2.364 7.056 2.266 7.148L1.594 7.781L1.501 7.604H2.686V8H1.099Z" fill="#0A0C1A" fill-opacity="0.6"/>
<path d="M1.798 12.036C1.652 12.036 1.507 12.017 1.363 11.979C1.219 11.939 1.097 11.883 0.997 11.811L1.186 11.439C1.266 11.497 1.359 11.543 1.465 11.577C1.571 11.611 1.678 11.628 1.786 11.628C1.908 11.628 2.004 11.604 2.074 11.556C2.144 11.508 2.179 11.442 2.179 11.358C2.179 11.278 2.148 11.215 2.086 11.169C2.024 11.123 1.924 11.1 1.786 11.1H1.564V10.779L2.149 10.116L2.203 10.29H1.102V9.9H2.572V10.215L1.99 10.878L1.744 10.737H1.885C2.143 10.737 2.338 10.795 2.47 10.911C2.602 11.027 2.668 11.176 2.668 11.358C2.668 11.476 2.637 11.587 2.575 11.691C2.513 11.793 2.418 11.876 2.29 11.94C2.162 12.004 1.998 12.036 1.798 12.036Z" fill="#0A0C1A" fill-opacity="0.6"/>
</svg>
