<svg width="20" height="20" viewBox="0 0 20 20" fill="none" xmlns="http://www.w3.org/2000/svg">
<path d="M6.98587 20V14.6423C6.98587 13.9465 7.65639 13.3825 8.48351 13.3825H11.5071C11.9043 13.3825 12.2852 13.5152 12.5661 13.7515C12.8469 13.9877 13.0047 14.3082 13.0047 14.6423V17.3679C13.0047 20 13.0047 20 13.3312 20C13.6578 20 13.7645 20 14.5973 20H16.6625C20.2983 19.8893 19.9937 20 19.9937 16.2113C19.9937 16.2113 19.9937 18.4613 19.9937 15.4108V7.6461C19.9937 6.99148 19.6488 6.37053 19.0518 5.95054L11.5071 0.633783C10.2864 -0.192796 9.66774 -0.229518 8.48351 0.633758L1.02354 5.95054C0.398383 6.35815 0.0247352 6.98094 0.00627065 7.6461V15.9654C0.00609969 19.2307 -0.298453 20 3.33734 20H5.83595C7.16405 20 6.98587 20 6.98587 20Z" fill="white"/>
<path d="M6.98587 20V14.6423C6.98587 13.9465 7.65639 13.3825 8.48351 13.3825H11.5071C11.9043 13.3825 12.2852 13.5152 12.5661 13.7515C12.8469 13.9877 13.0047 14.3082 13.0047 14.6423V17.3679C13.0047 20 13.0047 20 13.3312 20C13.6578 20 13.7645 20 14.5973 20H16.6625C20.2983 19.8893 19.9937 20 19.9937 16.2113C19.9937 16.2113 19.9937 18.4613 19.9937 15.4108V7.6461C19.9937 6.99148 19.6488 6.37053 19.0518 5.95054L11.5071 0.633783C10.2864 -0.192796 9.66774 -0.229518 8.48351 0.633758L1.02354 5.95054C0.398383 6.35815 0.0247352 6.98094 0.00627065 7.6461V15.9654C0.00609969 19.2307 -0.298453 20 3.33734 20H5.83595C7.16405 20 6.98587 20 6.98587 20Z" fill="url(#paint0_linear_1792_137)"/>
<defs>
<linearGradient id="paint0_linear_1792_137" x1="18.3218" y1="4.61539" x2="-8.96545" y2="20.2556" gradientUnits="userSpaceOnUse">
<stop stop-color="#3896C9"/>
<stop offset="1" stop-color="#3896C9" stop-opacity="0"/>
</linearGradient>
</defs>
</svg>
