<svg width="20" height="20" viewBox="0 0 20 20" fill="none" xmlns="http://www.w3.org/2000/svg">
<path fill-rule="evenodd" clip-rule="evenodd" d="M15.2548 0.0215247C15.1904 0.0296138 15.0101 0.0635016 14.8542 0.0968397L14.5708 0.157469V0.640773V1.12404L14.2288 1.2888C14.0408 1.37943 13.7936 1.52421 13.6797 1.61056L13.4726 1.76755L13.0547 1.53093L12.6368 1.2943L12.5249 1.40056C12.2261 1.68427 11.8371 2.29617 11.6408 2.79122C11.4295 3.32435 11.4157 3.2808 11.8805 3.54786L12.2843 3.77986V4.43499V5.09017L11.8842 5.32079C11.6642 5.44762 11.4839 5.57301 11.4836 5.59935C11.4825 5.69422 11.7184 6.29254 11.8575 6.54759C12.0267 6.85803 12.3239 7.26795 12.5113 7.44936L12.6466 7.58024L13.0579 7.33922L13.4692 7.09816L13.678 7.25797C13.7929 7.34589 14.0408 7.49264 14.2288 7.58405L14.5708 7.75031V8.22717C14.5708 8.77794 14.5271 8.72513 15.0544 8.81108C15.5126 8.88573 15.9947 8.88514 16.4321 8.80939C16.9672 8.71672 16.916 8.77873 16.916 8.22333V7.73947L17.2154 7.59662C17.3801 7.51804 17.6259 7.37417 17.7616 7.27686L18.0083 7.1L18.4214 7.34212L18.8346 7.58421L18.9345 7.49059C19.2741 7.17245 19.7948 6.2854 19.9407 5.77649L20 5.56963L19.8553 5.47978C19.7758 5.43039 19.5963 5.32358 19.4566 5.24245L19.2025 5.095V4.43488V3.77475L19.567 3.56357C19.7675 3.44746 19.9491 3.34171 19.9707 3.32859C20.0183 3.29965 19.849 2.78682 19.6805 2.44928C19.5319 2.15163 19.2404 1.7209 19.0184 1.47101L18.8469 1.27808L18.4299 1.52296L18.0129 1.76787L17.7611 1.58736C17.6226 1.48809 17.3758 1.34488 17.2127 1.26913L16.916 1.13142V0.645681V0.159943L16.7303 0.116631C16.2797 0.0114722 15.6558 -0.0287377 15.2548 0.0215247ZM16.232 2.88731C16.7253 3.03688 17.119 3.43552 17.287 3.95534C17.3902 4.27474 17.3561 4.81094 17.2136 5.10957C16.7163 6.15142 15.3784 6.38769 14.5815 5.57438C13.9424 4.92207 13.9618 3.89208 14.625 3.26196C15.0714 2.83783 15.6353 2.70636 16.232 2.88731ZM8.09618 5.75258C7.94949 6.15574 7.72001 6.73466 7.69879 6.75519C7.68417 6.76937 7.34897 6.78704 6.95397 6.79446L6.23576 6.80797L6.00258 6.27786C5.8743 5.9863 5.76658 5.745 5.76318 5.74166C5.75974 5.73832 5.5935 5.7772 5.3937 5.82809C4.8968 5.95461 4.42898 6.13111 3.92797 6.38105C3.54309 6.57307 2.87031 6.99041 2.8238 7.06596C2.81328 7.08308 2.90928 7.33458 3.03709 7.62489L3.26953 8.15268L2.86859 8.56016C2.64807 8.7843 2.42461 9.02509 2.372 9.09526L2.27636 9.22284L1.96465 9.10166C1.79322 9.03498 1.54229 8.93835 1.40705 8.88687L1.16116 8.79329L1.00298 9.03754C0.616964 9.63358 0.231264 10.6176 0.0703475 11.4169C0.0252423 11.6409 -0.00598741 11.8299 0.000969892 11.8369C0.0078881 11.8439 0.257843 11.9448 0.556381 12.0613L1.09917 12.273L1.09291 12.7604C1.08947 13.0285 1.10077 13.357 1.11801 13.4903L1.14931 13.7328L0.63897 13.9582C0.358255 14.0822 0.112482 14.1978 0.0927828 14.215C0.000579034 14.296 0.365525 15.433 0.696153 16.0947C0.895139 16.4929 1.33755 17.1942 1.38985 17.1942C1.40717 17.1942 1.65583 17.0876 1.94245 16.9574L2.46354 16.7205L2.76181 17.0292C2.92581 17.199 3.16396 17.4262 3.29103 17.534L3.52203 17.73L3.32034 18.2577C3.20942 18.548 3.11866 18.8038 3.11866 18.8263C3.11866 18.936 4.19806 19.4903 4.83414 19.7073C5.26972 19.8558 6.09056 20.0371 6.12976 19.9934C6.14497 19.9764 6.24851 19.724 6.35982 19.4325L6.56221 18.9024H7.05856C7.33154 18.9024 7.659 18.8935 7.78623 18.8827L8.01754 18.8631L8.24443 19.3736C8.36923 19.6543 8.47738 19.9009 8.48481 19.9215C8.50244 19.9705 9.17089 19.7938 9.66825 19.6088C10.3094 19.3704 11.444 18.7206 11.444 18.5919C11.444 18.5643 11.3422 18.3147 11.2179 18.0374L10.9919 17.5331L11.3133 17.223C11.4901 17.0525 11.7083 16.8172 11.7982 16.7002C11.8881 16.5831 11.9798 16.4874 12.0021 16.4874C12.0244 16.4874 12.2788 16.5794 12.5676 16.6918L13.0927 16.8962L13.1659 16.7998C13.3152 16.6031 13.6458 15.9647 13.815 15.5463C13.9889 15.1163 14.1935 14.385 14.2404 14.0258L14.2651 13.8368L13.7586 13.646C13.48 13.541 13.2347 13.4438 13.2133 13.43C13.1911 13.4157 13.1663 13.094 13.1553 12.6785L13.1362 11.952L13.3747 11.8446C13.5059 11.7856 13.7475 11.6765 13.9116 11.6023L14.21 11.4673L14.1536 11.2188C13.9794 10.4507 13.5863 9.53749 13.1303 8.84132L12.8932 8.47935L12.452 8.67844C11.7321 9.00318 11.8206 9.00094 11.5451 8.70137C11.3151 8.45119 10.9998 8.16109 10.8218 8.03586L10.7355 7.97516L10.9509 7.41406C11.1492 6.89769 11.1611 6.849 11.1 6.80322C10.8948 6.64945 10.2082 6.28846 9.8294 6.13512C9.3798 5.95315 8.67699 5.75273 8.32307 5.70557C8.14906 5.68237 8.11951 5.68849 8.09618 5.75258ZM7.99717 9.69252C9.34122 10.0773 10.2871 11.2618 10.3767 12.6725C10.5026 14.6523 8.76255 16.3077 6.78394 16.0904C5.67512 15.9687 4.73666 15.3131 4.23253 14.3081C3.98953 13.8236 3.89452 13.4324 3.88928 12.8944C3.87361 11.2951 4.94253 9.96932 6.51914 9.6326C6.87822 9.55591 7.62593 9.58622 7.99717 9.69252Z" fill="white"/>
<path fill-rule="evenodd" clip-rule="evenodd" d="M15.2548 0.0215247C15.1904 0.0296138 15.0101 0.0635016 14.8542 0.0968397L14.5708 0.157469V0.640773V1.12404L14.2288 1.2888C14.0408 1.37943 13.7936 1.52421 13.6797 1.61056L13.4726 1.76755L13.0547 1.53093L12.6368 1.2943L12.5249 1.40056C12.2261 1.68427 11.8371 2.29617 11.6408 2.79122C11.4295 3.32435 11.4157 3.2808 11.8805 3.54786L12.2843 3.77986V4.43499V5.09017L11.8842 5.32079C11.6642 5.44762 11.4839 5.57301 11.4836 5.59935C11.4825 5.69422 11.7184 6.29254 11.8575 6.54759C12.0267 6.85803 12.3239 7.26795 12.5113 7.44936L12.6466 7.58024L13.0579 7.33922L13.4692 7.09816L13.678 7.25797C13.7929 7.34589 14.0408 7.49264 14.2288 7.58405L14.5708 7.75031V8.22717C14.5708 8.77794 14.5271 8.72513 15.0544 8.81108C15.5126 8.88573 15.9947 8.88514 16.4321 8.80939C16.9672 8.71672 16.916 8.77873 16.916 8.22333V7.73947L17.2154 7.59662C17.3801 7.51804 17.6259 7.37417 17.7616 7.27686L18.0083 7.1L18.4214 7.34212L18.8346 7.58421L18.9345 7.49059C19.2741 7.17245 19.7948 6.2854 19.9407 5.77649L20 5.56963L19.8553 5.47978C19.7758 5.43039 19.5963 5.32358 19.4566 5.24245L19.2025 5.095V4.43488V3.77475L19.567 3.56357C19.7675 3.44746 19.9491 3.34171 19.9707 3.32859C20.0183 3.29965 19.849 2.78682 19.6805 2.44928C19.5319 2.15163 19.2404 1.7209 19.0184 1.47101L18.8469 1.27808L18.4299 1.52296L18.0129 1.76787L17.7611 1.58736C17.6226 1.48809 17.3758 1.34488 17.2127 1.26913L16.916 1.13142V0.645681V0.159943L16.7303 0.116631C16.2797 0.0114722 15.6558 -0.0287377 15.2548 0.0215247ZM16.232 2.88731C16.7253 3.03688 17.119 3.43552 17.287 3.95534C17.3902 4.27474 17.3561 4.81094 17.2136 5.10957C16.7163 6.15142 15.3784 6.38769 14.5815 5.57438C13.9424 4.92207 13.9618 3.89208 14.625 3.26196C15.0714 2.83783 15.6353 2.70636 16.232 2.88731ZM8.09618 5.75258C7.94949 6.15574 7.72001 6.73466 7.69879 6.75519C7.68417 6.76937 7.34897 6.78704 6.95397 6.79446L6.23576 6.80797L6.00258 6.27786C5.8743 5.9863 5.76658 5.745 5.76318 5.74166C5.75974 5.73832 5.5935 5.7772 5.3937 5.82809C4.8968 5.95461 4.42898 6.13111 3.92797 6.38105C3.54309 6.57307 2.87031 6.99041 2.8238 7.06596C2.81328 7.08308 2.90928 7.33458 3.03709 7.62489L3.26953 8.15268L2.86859 8.56016C2.64807 8.7843 2.42461 9.02509 2.372 9.09526L2.27636 9.22284L1.96465 9.10166C1.79322 9.03498 1.54229 8.93835 1.40705 8.88687L1.16116 8.79329L1.00298 9.03754C0.616964 9.63358 0.231264 10.6176 0.0703475 11.4169C0.0252423 11.6409 -0.00598741 11.8299 0.000969892 11.8369C0.0078881 11.8439 0.257843 11.9448 0.556381 12.0613L1.09917 12.273L1.09291 12.7604C1.08947 13.0285 1.10077 13.357 1.11801 13.4903L1.14931 13.7328L0.63897 13.9582C0.358255 14.0822 0.112482 14.1978 0.0927828 14.215C0.000579034 14.296 0.365525 15.433 0.696153 16.0947C0.895139 16.4929 1.33755 17.1942 1.38985 17.1942C1.40717 17.1942 1.65583 17.0876 1.94245 16.9574L2.46354 16.7205L2.76181 17.0292C2.92581 17.199 3.16396 17.4262 3.29103 17.534L3.52203 17.73L3.32034 18.2577C3.20942 18.548 3.11866 18.8038 3.11866 18.8263C3.11866 18.936 4.19806 19.4903 4.83414 19.7073C5.26972 19.8558 6.09056 20.0371 6.12976 19.9934C6.14497 19.9764 6.24851 19.724 6.35982 19.4325L6.56221 18.9024H7.05856C7.33154 18.9024 7.659 18.8935 7.78623 18.8827L8.01754 18.8631L8.24443 19.3736C8.36923 19.6543 8.47738 19.9009 8.48481 19.9215C8.50244 19.9705 9.17089 19.7938 9.66825 19.6088C10.3094 19.3704 11.444 18.7206 11.444 18.5919C11.444 18.5643 11.3422 18.3147 11.2179 18.0374L10.9919 17.5331L11.3133 17.223C11.4901 17.0525 11.7083 16.8172 11.7982 16.7002C11.8881 16.5831 11.9798 16.4874 12.0021 16.4874C12.0244 16.4874 12.2788 16.5794 12.5676 16.6918L13.0927 16.8962L13.1659 16.7998C13.3152 16.6031 13.6458 15.9647 13.815 15.5463C13.9889 15.1163 14.1935 14.385 14.2404 14.0258L14.2651 13.8368L13.7586 13.646C13.48 13.541 13.2347 13.4438 13.2133 13.43C13.1911 13.4157 13.1663 13.094 13.1553 12.6785L13.1362 11.952L13.3747 11.8446C13.5059 11.7856 13.7475 11.6765 13.9116 11.6023L14.21 11.4673L14.1536 11.2188C13.9794 10.4507 13.5863 9.53749 13.1303 8.84132L12.8932 8.47935L12.452 8.67844C11.7321 9.00318 11.8206 9.00094 11.5451 8.70137C11.3151 8.45119 10.9998 8.16109 10.8218 8.03586L10.7355 7.97516L10.9509 7.41406C11.1492 6.89769 11.1611 6.849 11.1 6.80322C10.8948 6.64945 10.2082 6.28846 9.8294 6.13512C9.3798 5.95315 8.67699 5.75273 8.32307 5.70557C8.14906 5.68237 8.11951 5.68849 8.09618 5.75258ZM7.99717 9.69252C9.34122 10.0773 10.2871 11.2618 10.3767 12.6725C10.5026 14.6523 8.76255 16.3077 6.78394 16.0904C5.67512 15.9687 4.73666 15.3131 4.23253 14.3081C3.98953 13.8236 3.89452 13.4324 3.88928 12.8944C3.87361 11.2951 4.94253 9.96932 6.51914 9.6326C6.87822 9.55591 7.62593 9.58622 7.99717 9.69252Z" fill="url(#paint0_linear_1820_199)"/>
<defs>
<linearGradient id="paint0_linear_1820_199" x1="15.5171" y1="2.84689" x2="-2.19718" y2="21.5544" gradientUnits="userSpaceOnUse">
<stop stop-color="#358CBC"/>
<stop offset="1" stop-color="#358CBC" stop-opacity="0"/>
</linearGradient>
</defs>
</svg>
