<svg width="20" height="15" viewBox="0 0 20 15" fill="none" xmlns="http://www.w3.org/2000/svg">
<ellipse cx="14.7825" cy="3" rx="2.6087" ry="3" fill="white"/>
<ellipse cx="14.7826" cy="10" rx="5.21739" ry="3" fill="white"/>
<ellipse cx="14.7825" cy="3" rx="2.6087" ry="3" fill="url(#paint0_linear_1792_114)"/>
<ellipse cx="14.7826" cy="10" rx="5.21739" ry="3" fill="url(#paint1_linear_1792_114)"/>
<ellipse cx="5.21734" cy="3" rx="2.6087" ry="3" fill="white"/>
<ellipse cx="5.21739" cy="10" rx="5.21739" ry="3" fill="white"/>
<ellipse cx="5.21734" cy="3" rx="2.6087" ry="3" fill="url(#paint2_linear_1792_114)"/>
<ellipse cx="5.21739" cy="10" rx="5.21739" ry="3" fill="url(#paint3_linear_1792_114)"/>
<ellipse cx="10.4346" cy="5" rx="2.6087" ry="3" fill="white"/>
<ellipse cx="10.4344" cy="12" rx="5.21739" ry="3" fill="white"/>
<ellipse cx="10.4346" cy="5" rx="2.6087" ry="3" fill="url(#paint4_linear_1792_114)"/>
<ellipse cx="10.4344" cy="12" rx="5.21739" ry="3" fill="url(#paint5_linear_1792_114)"/>
<defs>
<linearGradient id="paint0_linear_1792_114" x1="17.3912" y1="3.6" x2="9.56632" y2="3.69619" gradientUnits="userSpaceOnUse">
<stop stop-color="#3896C9"/>
<stop offset="1" stop-color="#3896C9" stop-opacity="0.01"/>
</linearGradient>
<linearGradient id="paint1_linear_1792_114" x1="20" y1="10" x2="6.52171" y2="10" gradientUnits="userSpaceOnUse">
<stop stop-color="#3896C9"/>
<stop offset="1" stop-color="#3896C9" stop-opacity="0.01"/>
</linearGradient>
<linearGradient id="paint2_linear_1792_114" x1="7.82603" y1="3.6" x2="0.00112989" y2="3.69619" gradientUnits="userSpaceOnUse">
<stop stop-color="#3896C9"/>
<stop offset="1" stop-color="#3896C9" stop-opacity="0.01"/>
</linearGradient>
<linearGradient id="paint3_linear_1792_114" x1="10.4348" y1="10" x2="-3.04348" y2="10" gradientUnits="userSpaceOnUse">
<stop stop-color="#3896C9"/>
<stop offset="1" stop-color="#3896C9" stop-opacity="0.01"/>
</linearGradient>
<linearGradient id="paint4_linear_1792_114" x1="13.0433" y1="5.6" x2="5.21842" y2="5.69619" gradientUnits="userSpaceOnUse">
<stop stop-color="#3896C9"/>
<stop offset="1" stop-color="#3896C9" stop-opacity="0.01"/>
</linearGradient>
<linearGradient id="paint5_linear_1792_114" x1="15.6518" y1="12" x2="2.17356" y2="12" gradientUnits="userSpaceOnUse">
<stop stop-color="#3896C9"/>
<stop offset="1" stop-color="#3896C9" stop-opacity="0.01"/>
</linearGradient>
</defs>
</svg>
