<svg width="17" height="19" viewBox="0 0 17 19" fill="none" xmlns="http://www.w3.org/2000/svg">
<path fill-rule="evenodd" clip-rule="evenodd" d="M2.34735 0.0439895C2.01823 0.161848 1.731 0.461131 1.68193 0.73734C1.67097 0.799044 1.66667 2.58624 1.67236 4.70886L1.68273 8.56818L1.97482 8.36616C2.33698 8.11566 3.03526 7.77169 3.47482 7.62728C4.67202 7.23395 5.97876 7.23449 7.21033 7.62878C8.15608 7.9316 8.94228 8.43159 9.68335 9.20154C11.0523 10.6238 11.6148 12.6153 11.2072 14.5961C10.9692 15.7526 10.2975 16.922 9.39319 17.7541L9.09537 18.0281H11.0392H12.983L12.9837 16.8689C12.9841 16.2313 13.0006 15.5946 13.0204 15.4541C13.1169 14.7677 13.6476 14.1986 14.3266 14.0533C14.4493 14.027 14.9737 14.0119 15.76 14.0119H17L16.9905 7.35768L16.981 0.703494L16.9003 0.552556C16.7975 0.36036 16.6304 0.193284 16.4382 0.0905049L16.2873 0.00977836L9.38662 0.00207448C3.64638 -0.00435152 2.46265 0.00269517 2.34735 0.0439895ZM4.20972 1.42459C4.31659 1.54136 4.34342 1.65958 4.29147 1.785C4.22052 1.95627 4.09244 1.99965 3.65788 1.99965C3.23202 1.99965 3.10901 1.96277 3.03091 1.81179C2.9561 1.6671 2.96618 1.58221 3.07341 1.45479L3.16794 1.34244H3.65124C4.10581 1.34244 4.13899 1.34733 4.20972 1.42459ZM15.5587 1.43208C15.7005 1.57389 15.6917 1.75502 15.5359 1.8996L15.4272 2.00041L10.2952 1.99088L5.16325 1.98139L5.07511 1.87894C4.94542 1.72818 4.96959 1.51233 5.12988 1.38925C5.17478 1.35478 6.34505 1.34449 10.3284 1.34361L15.4691 1.34244L15.5587 1.43208ZM4.20906 3.43228C4.34444 3.56766 4.34426 3.75431 4.20858 3.89009C4.11395 3.98484 4.08974 3.9901 3.69418 4.00167C3.22157 4.01555 3.09276 3.97553 3.01642 3.79115C2.93774 3.60122 3.03555 3.40902 3.24439 3.34315C3.28916 3.32906 3.50224 3.3211 3.71798 3.32548C4.09065 3.33304 4.11515 3.33837 4.20906 3.43228ZM13.2231 3.42808C13.355 3.55999 13.355 3.76183 13.2231 3.89374L13.1274 3.98951L9.1941 3.99879C5.36307 4.00781 5.25785 4.0062 5.14565 3.93756C4.93027 3.80568 4.95353 3.467 5.18493 3.3655C5.27742 3.32497 5.99209 3.31767 9.21235 3.32428L13.1274 3.33231L13.2231 3.42808ZM4.20858 5.43985C4.34331 5.57473 4.34441 5.76232 4.21118 5.89555C4.12527 5.98146 4.07974 5.99409 3.80437 6.00855C3.63386 6.0175 3.42184 6.01396 3.33323 6.00067C3.0606 5.95977 2.92426 5.76123 3.01631 5.53905C3.09295 5.35398 3.19919 5.32075 3.681 5.33116C4.09281 5.34007 4.11311 5.34427 4.20858 5.43985ZM7.47051 5.37731C7.72919 5.51109 7.71714 5.8525 7.44977 5.96423C7.29226 6.03002 5.39429 6.03952 5.21042 5.97544C4.95984 5.88807 4.91917 5.5308 5.14415 5.39359C5.25266 5.32743 5.33448 5.32243 6.31237 5.32232C7.17904 5.32221 7.38262 5.33189 7.47051 5.37731ZM16.2475 6.12824L16.342 6.24055V8.6458C16.342 10.4328 16.3308 11.0756 16.2984 11.1468C16.2514 11.2498 16.0981 11.3465 15.9815 11.3465C15.9419 11.3465 15.8589 11.304 15.7972 11.252L15.6848 11.1575V8.67633V6.19513L15.7745 6.10553C15.9098 5.97018 16.1231 5.9804 16.2475 6.12824ZM4.8889 8.02569C2.52665 8.21782 0.596373 9.92428 0.0872594 12.2707C-0.022019 12.7743 -0.0302705 13.8667 0.0716326 14.3405C0.438352 16.0456 1.44019 17.365 2.9404 18.1184C4.76531 19.0349 6.96556 18.8161 8.59235 17.5562C9.67061 16.7212 10.3798 15.5134 10.5975 14.1417C10.6694 13.6885 10.6468 12.6721 10.5557 12.2648C9.95799 9.59188 7.57259 7.80747 4.8889 8.02569ZM5.55457 8.77085L5.64421 8.86045V11.0246V13.1887L6.64827 14.1951C7.57822 15.1272 7.65233 15.2109 7.65233 15.3288C7.65233 15.5703 7.42611 15.7427 7.22081 15.6576C7.16421 15.6342 6.63845 15.1345 6.05244 14.5473L4.98701 13.4796V11.1928V8.90587L5.08153 8.79356C5.20593 8.64573 5.41926 8.63551 5.55457 8.77085ZM16.1542 12.0558C16.3052 12.1339 16.342 12.2569 16.342 12.6828C16.342 13.1173 16.2987 13.2454 16.1274 13.3163C16.002 13.3683 15.8837 13.3415 15.767 13.2346C15.6897 13.1639 15.6848 13.1307 15.6848 12.6761V12.1928L15.7972 12.0983C15.9246 11.991 16.0095 11.981 16.1542 12.0558ZM14.4047 14.7189C14.1129 14.7976 13.8441 15.0435 13.7349 15.3316C13.6832 15.4681 13.6761 15.6339 13.6848 16.504L13.695 17.5174L15.1187 16.0932L16.5425 14.6691L15.5569 14.6715C14.8989 14.6732 14.5158 14.6889 14.4047 14.7189Z" fill="url(#paint0_linear_4273_5126)"/>
<defs>
<linearGradient id="paint0_linear_4273_5126" x1="16" y1="0.5" x2="-6.5" y2="24" gradientUnits="userSpaceOnUse">
<stop offset="0.0213821" stop-color="#3896C9"/>
<stop offset="1" stop-color="#3896C9" stop-opacity="0"/>
</linearGradient>
</defs>
</svg>
