<svg width="12" height="10" viewBox="0 0 12 10" fill="none" xmlns="http://www.w3.org/2000/svg">
<path d="M10.9222 1.31808L10.0117 0.500061C9.89216 0.368522 9.63128 0.368443 9.51172 0.499981L3.67737 6.85392L1.51172 4.49998C1.39216 4.36844 1.11956 4.36846 1 4.5L0.101427 5.35434C0.04402 5.4175 0.0117188 5.50323 0.0117188 5.59249C0.0117188 5.68175 0.04402 5.76748 0.101427 5.83064L3.4609 9.52635C3.52076 9.5922 3.59898 9.62504 3.67737 9.62504C3.7559 9.62504 3.83382 9.5922 3.89383 9.52635L10.922 1.79438C10.9794 1.73122 11.0117 1.6455 11.0117 1.55623C11.0117 1.46697 10.9796 1.38124 10.9222 1.31808Z" fill="url(#paint0_linear_5165_7261)"/>
<defs>
<linearGradient id="paint0_linear_5165_7261" x1="9.5" y1="0.142334" x2="-0.5" y2="10.6423" gradientUnits="userSpaceOnUse">
<stop offset="0.032086" stop-color="#3896C9"/>
<stop offset="1" stop-color="#3896C9" stop-opacity="0"/>
</linearGradient>
</defs>
</svg>
