<svg width="16" height="14" viewBox="0 0 16 14" fill="none" xmlns="http://www.w3.org/2000/svg">
<path fill-rule="evenodd" clip-rule="evenodd" d="M10.1818 7C11.7891 7 13.0909 5.43375 13.0909 3.5C13.0909 1.56625 11.7891 0 10.1818 0C8.57455 0 7.27273 1.56625 7.27273 3.5C7.27273 5.43375 8.57455 7 10.1818 7ZM3.63636 5.25V3.5C3.63636 3.01875 3.30909 2.625 2.90909 2.625C2.50909 2.625 2.18182 3.01875 2.18182 3.5V5.25H0.727273C0.327273 5.25 0 5.64375 0 6.125C0 6.60625 0.327273 7 0.727273 7H2.18182V8.75C2.18182 9.23125 2.50909 9.625 2.90909 9.625C3.30909 9.625 3.63636 9.23125 3.63636 8.75V7H5.09091C5.49091 7 5.81818 6.60625 5.81818 6.125C5.81818 5.64375 5.49091 5.25 5.09091 5.25H3.63636ZM10.1818 8.75C8.24 8.75 4.36364 9.9225 4.36364 12.25V13.125C4.36364 13.6062 4.69091 14 5.09091 14H15.2727C15.6727 14 16 13.6062 16 13.125V12.25C16 9.9225 12.1236 8.75 10.1818 8.75Z" fill="#3896C9"/>
</svg>
