<svg width="16" height="16" viewBox="0 0 16 16" fill="none" xmlns="http://www.w3.org/2000/svg">
<path d="M13.906 2.29644C13.3596 1.62791 12.3742 1.58691 11.7175 2.32407L5.28566 9.54421C5.1189 9.7314 5.1189 9.96851 5.28566 10.1557C5.45241 10.3429 5.66363 10.3429 5.83038 10.1557L11.1506 4.18348C11.3003 4.02111 11.5009 3.93126 11.7091 3.9333C11.9173 3.93533 12.1165 4.02907 12.2637 4.19434C12.4109 4.35961 12.4944 4.58318 12.4962 4.81689C12.4981 5.05061 12.418 5.27577 12.2734 5.44389L6.95318 11.4161C6.77187 11.6255 6.55497 11.792 6.31533 11.9057C6.0757 12.0194 5.81818 12.078 5.55802 12.078C5.29786 12.078 5.04034 12.0194 4.8007 11.9057C4.56106 11.792 4.34417 11.6255 4.16286 11.4161C3.97628 11.2126 3.82797 10.9691 3.7267 10.7001C3.62542 10.4311 3.57324 10.142 3.57324 9.84996C3.57324 9.55791 3.62542 9.26883 3.7267 8.99982C3.82797 8.73082 3.97628 8.48734 4.16286 8.28381L10.5947 1.06367C11.839 -0.334009 13.8623 -0.379469 15.0653 1.07704C16.2977 2.47561 16.3334 4.73524 15.0415 6.08033L7.50902 14.5359C5.77003 16.488 3.04323 16.488 1.30424 14.5359C-0.434747 12.5838 -0.434747 9.52282 1.30424 7.57071L7.73612 0.350567C7.88588 0.188196 8.08646 0.0983502 8.29466 0.100381C8.50286 0.102412 8.70202 0.196157 8.84925 0.361425C8.99647 0.526694 9.07998 0.750262 9.08179 0.983977C9.0836 1.21769 9.00357 1.44286 8.85892 1.61097L2.42704 8.83111C1.30742 10.088 1.30742 12.0187 2.42704 13.2755C3.54667 14.5324 5.2666 14.5324 6.38622 13.2755L13.9298 4.80744L13.9544 4.7807C14.5499 4.16833 14.5865 3.06124 13.9298 2.32407L13.906 2.29644Z" fill="#3896C9"/>
</svg>
