<svg width="518" height="288" viewBox="0 0 518 288" fill="none" xmlns="http://www.w3.org/2000/svg">
<rect x="1" y="74.2544" width="138" height="88.3136" rx="2" fill="white" stroke="#3896C9" stroke-width="2"/>
<rect x="1" y="74.2544" width="138" height="88.3136" rx="2" fill="#3896C9" fill-opacity="0.08" stroke="#3896C9" stroke-width="2"/>
<rect width="2.03522" height="32.0262" transform="matrix(0.795018 0.606586 -0.568951 0.822372 52.2212 105.81)" fill="#3896C9"/>
<rect width="2.05427" height="31.7327" transform="matrix(0.663982 0.747748 -0.714467 0.699669 106.672 100.559)" fill="#3896C9"/>
<rect width="2.05601" height="24.9083" transform="matrix(0.650903 -0.759161 0.726606 0.687054 60 106.32)" fill="#3896C9"/>
<path d="M36.5 137.314C36.5 140.541 34.0148 143.115 31 143.115C27.9852 143.115 25.5 140.541 25.5 137.314C25.5 134.087 27.9852 131.513 31 131.513C34.0148 131.513 36.5 134.087 36.5 137.314Z" fill="white" stroke="#3896C9"/>
<path d="M61.5 102.659C61.5 105.886 59.0148 108.46 56 108.46C52.9852 108.46 50.5 105.886 50.5 102.659C50.5 99.4317 52.9852 96.8579 56 96.8579C59.0148 96.8579 61.5 99.4317 61.5 102.659Z" fill="white" stroke="#3896C9"/>
<path d="M87.5 124.713C87.5 127.94 85.0148 130.514 82 130.514C78.9852 130.514 76.5 127.94 76.5 124.713C76.5 121.485 78.9852 118.912 82 118.912C85.0148 118.912 87.5 121.485 87.5 124.713Z" fill="white" stroke="#3896C9"/>
<path d="M114.5 99.5085C114.5 102.736 112.015 105.309 109 105.309C105.985 105.309 103.5 102.736 103.5 99.5085C103.5 96.2814 105.985 93.7075 109 93.7075C112.015 93.7075 114.5 96.2814 114.5 99.5085Z" fill="white" stroke="#3896C9"/>
<rect x="169" y="1" width="141" height="91.324" rx="2" fill="white" stroke="#3896C9" stroke-width="2"/>
<rect x="169" y="1" width="141" height="91.324" rx="2" fill="#3896C9" fill-opacity="0.08" stroke="#3896C9" stroke-width="2"/>
<ellipse cx="209.879" cy="44.97" rx="23.4929" ry="23.2668" fill="white"/>
<path d="M233.371 44.97C233.371 57.8199 222.853 68.2368 209.879 68.2368C196.904 68.2368 186.386 57.8199 186.386 44.97C186.386 32.12 196.904 21.7031 209.879 21.7031C222.853 21.7031 233.371 32.12 233.371 44.97ZM190.065 44.97C190.065 55.8075 198.936 64.5931 209.879 64.5931C220.821 64.5931 229.692 55.8075 229.692 44.97C229.692 34.1324 220.821 25.3468 209.879 25.3468C198.936 25.3468 190.065 34.1324 190.065 44.97Z" fill="#3896C9" fill-opacity="0.2"/>
<path d="M209.879 23.5265C209.879 22.5195 210.696 21.6958 211.7 21.7732C216.349 22.1311 220.8 23.8531 224.475 26.7392C228.628 30.0004 231.545 34.5565 232.753 39.6673C233.961 44.778 233.389 50.1431 231.129 54.8909C228.869 59.6386 225.055 63.4902 220.305 65.8197C215.556 68.1493 210.151 68.82 204.968 67.7229C199.785 66.6257 195.129 63.8253 191.757 59.7764C188.384 55.7275 186.493 50.6681 186.39 45.4203C186.299 40.778 187.613 36.2296 190.141 32.3516C190.69 31.5084 191.839 31.3577 192.642 31.9639C193.457 32.5782 193.605 33.7347 193.062 34.598C191.043 37.8087 189.997 41.5418 190.072 45.3497C190.158 49.775 191.753 54.0414 194.597 57.4557C197.441 60.87 201.367 63.2316 205.738 64.1567C210.108 65.0819 214.666 64.5163 218.671 62.5519C222.676 60.5875 225.893 57.3396 227.798 53.3359C229.704 49.3323 230.187 44.8081 229.168 40.4984C228.149 36.1887 225.689 32.3467 222.188 29.5965C219.164 27.2218 215.516 25.7817 211.7 25.4328C210.697 25.3412 209.879 24.5335 209.879 23.5265Z" fill="#3896C9"/>
<path d="M208.567 44.8524C208.971 45.0357 209.279 45.2851 209.491 45.6004C209.711 45.9084 209.821 46.2714 209.821 46.6894C209.821 47.1587 209.689 47.5694 209.425 47.9214C209.169 48.2734 208.802 48.5447 208.325 48.7354C207.849 48.9187 207.295 49.0104 206.664 49.0104C206.034 49.0104 205.48 48.9187 205.003 48.7354C204.534 48.5447 204.171 48.2734 203.914 47.9214C203.658 47.5694 203.529 47.1587 203.529 46.6894C203.529 46.2714 203.636 45.9084 203.848 45.6004C204.061 45.2851 204.365 45.0357 204.761 44.8524C204.453 44.6837 204.215 44.4637 204.046 44.1924C203.885 43.9137 203.804 43.5947 203.804 43.2354C203.804 42.8027 203.922 42.4251 204.156 42.1024C204.398 41.7797 204.736 41.5304 205.168 41.3544C205.601 41.1784 206.1 41.0904 206.664 41.0904C207.236 41.0904 207.739 41.1784 208.171 41.3544C208.604 41.5304 208.941 41.7797 209.183 42.1024C209.425 42.4251 209.546 42.8027 209.546 43.2354C209.546 43.5947 209.462 43.9101 209.293 44.1814C209.125 44.4527 208.883 44.6764 208.567 44.8524ZM206.664 42.2124C206.217 42.2124 205.861 42.3077 205.597 42.4984C205.341 42.6891 205.212 42.9567 205.212 43.3014C205.212 43.6314 205.341 43.8954 205.597 44.0934C205.861 44.2841 206.217 44.3794 206.664 44.3794C207.119 44.3794 207.478 44.2841 207.742 44.0934C208.006 43.8954 208.138 43.6314 208.138 43.3014C208.138 42.9567 208.003 42.6891 207.731 42.4984C207.467 42.3077 207.112 42.2124 206.664 42.2124ZM206.664 47.8884C207.192 47.8884 207.61 47.7784 207.918 47.5584C208.226 47.3384 208.38 47.0341 208.38 46.6454C208.38 46.2641 208.226 45.9634 207.918 45.7434C207.61 45.5234 207.192 45.4134 206.664 45.4134C206.136 45.4134 205.722 45.5234 205.421 45.7434C205.121 45.9634 204.97 46.2641 204.97 46.6454C204.97 47.0341 205.121 47.3384 205.421 47.5584C205.722 47.7784 206.136 47.8884 206.664 47.8884ZM216.326 47.6904V48.9004H210.65V47.9434L213.708 45.0394C214.053 44.7094 214.284 44.4234 214.401 44.1814C214.526 43.9321 214.588 43.6864 214.588 43.4444C214.588 43.0851 214.467 42.8101 214.225 42.6194C213.983 42.4287 213.627 42.3334 213.158 42.3334C212.373 42.3334 211.772 42.6011 211.354 43.1364L210.353 42.3664C210.654 41.9631 211.057 41.6514 211.563 41.4314C212.076 41.2041 212.648 41.0904 213.279 41.0904C214.115 41.0904 214.782 41.2884 215.281 41.6844C215.78 42.0804 216.029 42.6194 216.029 43.3014C216.029 43.7194 215.941 44.1117 215.765 44.4784C215.589 44.8451 215.252 45.2631 214.753 45.7324L212.696 47.6904H216.326Z" fill="#3896C9"/>
<ellipse cx="269.121" cy="44.97" rx="23.4929" ry="23.2668" fill="white"/>
<path d="M292.614 44.97C292.614 57.8199 282.096 68.2368 269.121 68.2368C256.147 68.2368 245.628 57.8199 245.628 44.97C245.628 32.12 256.147 21.7031 269.121 21.7031C282.096 21.7031 292.614 32.12 292.614 44.97ZM249.308 44.97C249.308 55.8075 258.178 64.5931 269.121 64.5931C280.064 64.5931 288.935 55.8075 288.935 44.97C288.935 34.1324 280.064 25.3468 269.121 25.3468C258.178 25.3468 249.308 34.1324 249.308 44.97Z" fill="#3896C9" fill-opacity="0.2"/>
<path d="M269.121 23.5197C269.121 22.5164 269.936 21.6959 270.936 21.7726C274.943 22.0801 278.815 23.4018 282.173 25.6243C286.037 28.1809 289.048 31.8147 290.826 36.0661C292.604 40.3176 293.069 44.9958 292.163 49.5091C291.375 53.4325 289.581 57.0781 286.967 60.1016C286.312 60.859 285.16 60.8546 284.449 60.15C283.728 59.4358 283.735 58.2754 284.386 57.4969C286.48 54.994 287.921 52.0071 288.565 48.8003C289.33 44.9917 288.937 41.0441 287.437 37.4565C285.936 33.8689 283.395 30.8025 280.135 28.6451C277.38 26.8219 274.216 25.7171 270.935 25.4186C269.936 25.3276 269.121 24.5229 269.121 23.5197Z" fill="#3896C9"/>
<path d="M269.036 47.1514H267.672V48.9004H266.286V47.1514H262.062V46.1614L265.857 41.2004H267.386L263.811 45.9414H266.33V44.3904H267.672V45.9414H269.036V47.1514ZM272.85 49.0104C272.234 49.0104 271.684 48.8564 271.2 48.5484C270.716 48.2331 270.334 47.7784 270.056 47.1844C269.777 46.5831 269.638 45.8717 269.638 45.0504C269.638 44.2291 269.777 43.5214 270.056 42.9274C270.334 42.3261 270.716 41.8714 271.2 41.5634C271.684 41.2481 272.234 41.0904 272.85 41.0904C273.466 41.0904 274.016 41.2481 274.5 41.5634C274.991 41.8714 275.376 42.3261 275.655 42.9274C275.933 43.5214 276.073 44.2291 276.073 45.0504C276.073 45.8717 275.933 46.5831 275.655 47.1844C275.376 47.7784 274.991 48.2331 274.5 48.5484C274.016 48.8564 273.466 49.0104 272.85 49.0104ZM272.85 47.7674C273.4 47.7674 273.832 47.5401 274.148 47.0854C274.47 46.6307 274.632 45.9524 274.632 45.0504C274.632 44.1484 274.47 43.4701 274.148 43.0154C273.832 42.5607 273.4 42.3334 272.85 42.3334C272.307 42.3334 271.874 42.5607 271.552 43.0154C271.236 43.4701 271.079 44.1484 271.079 45.0504C271.079 45.9524 271.236 46.6307 271.552 47.0854C271.874 47.5401 272.307 47.7674 272.85 47.7674Z" fill="#3896C9"/>
<rect x="77.75" y="198.437" width="41.5" height="87.8101" rx="4.25" fill="#3896C9" fill-opacity="0.9"/>
<rect x="77.75" y="198.437" width="41.5" height="87.8101" rx="4.25" fill="#3896C9" fill-opacity="0.9"/>
<rect x="77.75" y="198.437" width="41.5" height="87.8101" rx="4.25" stroke="#1C6F9C" stroke-width="1.5"/>
<path d="M88 197.687H108V199.704C108 201.361 106.657 202.704 105 202.704H91C89.3431 202.704 88 201.361 88 199.704V197.687Z" fill="#1C6F9C"/>
<g opacity="0.85">
<rect x="93" y="199.693" width="7.69231" height="1.00348" fill="white"/>
<rect x="101.461" y="199.693" width="1.53846" height="1.00348" fill="white"/>
</g>
<rect x="88" y="280.976" width="21" height="2.00697" rx="0.5" fill="white"/>
<path d="M109.5 226.787C109.5 233.163 104.35 238.329 98 238.329C91.6504 238.329 86.5 233.163 86.5 226.787C86.5 220.411 91.6504 215.246 98 215.246C104.35 215.246 109.5 220.411 109.5 226.787Z" fill="#1C6F9C" stroke="#096495"/>
<path d="M98 215.749C96.2304 215.749 94.4869 216.177 92.9175 216.998C91.3482 217.818 89.9992 219.007 88.9852 220.462L98 226.787V215.749Z" fill="white"/>
<path d="M98 215.749C96.2304 215.749 94.4869 216.177 92.9175 216.998C91.3482 217.818 89.9992 219.007 88.9852 220.462L98 226.787V215.749Z" fill="#3A97CA"/>
<rect x="88.25" y="246.104" width="19.5" height="4.51742" rx="0.75" fill="#1C6F9C" stroke="#096495" stroke-width="0.5"/>
<path d="M96.5 258.398C96.5 260.617 94.7075 262.413 92.5 262.413C90.2925 262.413 88.5 260.617 88.5 258.398C88.5 256.178 90.2925 254.382 92.5 254.382C94.7075 254.382 96.5 256.178 96.5 258.398Z" fill="#1C6F9C" stroke="#096495"/>
<path d="M107.5 258.398C107.5 260.617 105.708 262.413 103.5 262.413C101.292 262.413 99.5 260.617 99.5 258.398C99.5 256.178 101.292 254.382 103.5 254.382C105.708 254.382 107.5 256.178 107.5 258.398Z" fill="#1C6F9C" stroke="#096495"/>
<rect x="338" y="13.042" width="141" height="88.3136" rx="2" fill="white" stroke="#3896C9" stroke-width="2"/>
<rect x="338" y="13.042" width="141" height="88.3136" rx="2" fill="#3896C9" fill-opacity="0.08" stroke="#3896C9" stroke-width="2"/>
<ellipse cx="408.5" cy="57.1989" rx="24.5143" ry="25.2038" fill="#3896C9"/>
<g filter="url(#filter0_d_4070_3927)">
<path d="M384.019 47.2857C385.966 42.3906 389.188 38.17 393.318 35.1043C397.447 32.0385 402.319 30.2507 407.378 29.9443L409.011 58.2487L384.019 47.2857Z" fill="white"/>
<path d="M384.019 47.2862C385.966 42.3911 389.188 38.1705 393.318 35.1047C397.447 32.039 402.319 30.2511 407.378 29.9447L409.011 58.2492L384.019 47.2862Z" fill="#3896C9" fill-opacity="0.78"/>
</g>
<path d="M441.598 200.654C445.567 191.587 456.104 187.445 465.185 191.381L475.274 195.754C470.172 205.259 458.669 209.442 448.591 205.288L440.948 202.138L441.598 200.654Z" fill="#54B58E" stroke="#32976D" stroke-width="2"/>
<path d="M450.766 170.115C455.974 161.836 466.829 159.253 475.21 164.298L483.372 169.213C476.558 178.358 463.758 180.708 454.1 174.413L449.818 171.622L450.766 170.115Z" fill="#54B58E" stroke="#32976D" stroke-width="2"/>
<path d="M411.788 123.673C421.215 124.194 428.638 131.908 428.796 141.348L428.984 152.541C417.117 152.353 407.662 142.318 408.325 130.337L408.703 123.503L411.788 123.673Z" fill="#54B58E" stroke="#32976D" stroke-width="2"/>
<path d="M410.927 177.083C405.828 178.635 400.304 177.848 395.844 174.933L383.054 166.576L387.957 163.374C399.958 155.536 416.026 160.78 421.197 173.958L410.927 177.083Z" fill="#54B58E" stroke="#32976D" stroke-width="2"/>
<path d="M415.824 200.303C412.689 205.819 406.895 209.279 400.568 209.413L390.649 209.624L391.79 205.705C395.142 194.196 408.56 189.268 418.47 195.649L415.824 200.303Z" fill="#54B58E" stroke="#32976D" stroke-width="2"/>
<path d="M449.361 145.579C448.318 135.853 455.233 127.067 464.932 125.796L474.353 124.561C474.675 135.975 466.083 145.799 454.597 146.889L449.553 147.368L449.361 145.579Z" fill="#54B58E" stroke="#32976D" stroke-width="2"/>
<path d="M450.122 147.011L442.935 157.187C439.195 162.482 436.444 168.411 434.814 174.689V174.689M429.845 221.4L430.531 211.203M434.814 174.689L439.284 173.085C441.166 172.41 443.136 172.007 445.133 171.89L450.122 171.596M434.814 174.689L432.556 183.385M430.531 211.203L432.293 185.007C432.33 184.459 432.418 183.916 432.556 183.385V183.385M430.531 211.203L432.418 208.195C433.852 205.909 435.962 204.127 438.456 203.097L440.622 202.202M437.622 166.046L429.122 152.53M431.746 193.14L426.482 193.14C425.253 193.14 424.034 193.367 422.888 193.809L418.122 195.649M432.556 183.385L429.69 180.016C428.323 178.41 426.67 177.072 424.816 176.069L421.122 174.074" stroke="#32976D" stroke-width="2"/>
<path d="M400.461 222.963C400.337 222.344 400.81 221.767 401.442 221.767H459.558C460.19 221.767 460.663 222.344 460.539 222.963L447.681 287H413.319L400.461 222.963Z" fill="#EAF4F9" stroke="#3896C9" stroke-width="2"/>
<path d="M161 131.425C161 127.007 164.582 123.425 169 123.425H405C409.418 123.425 413 127.007 413 131.425V272.951H161V131.425Z" fill="#F9FCFE" stroke="#3896C9" stroke-width="2"/>
<path d="M172 138.463C172 136.254 173.791 134.463 176 134.463H398C400.209 134.463 402 136.254 402 138.463V283.99H172V138.463Z" fill="#F9FCFE" stroke="#3896C9" stroke-width="2"/>
<path d="M141 274.944C141 273.84 141.895 272.944 143 272.944H431C432.105 272.944 433 273.84 433 274.944V280C433 283.866 429.866 287 426 287H148C144.134 287 141 283.866 141 280V274.944Z" fill="#EFF7FB" stroke="#3896C9" stroke-width="2"/>
<rect opacity="0.69" x="262" y="278.634" width="46" height="2.67596" rx="1" fill="#3896C9"/>
<ellipse cx="281" cy="128.446" rx="1" ry="1.00348" fill="#3896C9"/>
<rect x="286" y="127.443" width="9" height="2.00697" rx="1" fill="#3896C9"/>
<rect x="172" y="142.495" width="230" height="2.00697" fill="#3896C9"/>
<rect x="172" y="272.952" width="129.456" height="30" transform="rotate(-90 172 272.952)" fill="#3896C9" fill-opacity="0.37" stroke="#3896C9" stroke-width="2"/>
<rect x="217" y="156.54" width="53" height="36.1324" rx="2" fill="white" stroke="#3896C9" stroke-width="2"/>
<rect x="217" y="156.54" width="53" height="36.1324" rx="2" fill="#3896C9" fill-opacity="0.08" stroke="#3896C9" stroke-width="2"/>
<rect width="0.822045" height="13.2251" transform="matrix(0.773262 0.634087 -0.541273 0.840846 236.515 169.286)" fill="#3896C9"/>
<rect width="0.841295" height="12.931" transform="matrix(0.636941 0.770912 -0.688799 0.724952 257.907 167.069)" fill="#3896C9"/>
<rect width="0.84304" height="10.1372" transform="matrix(0.62363 -0.781719 0.701387 0.712781 239.571 169.501)" fill="#3896C9"/>
<path d="M230.036 182.588C230.036 183.839 229.149 184.748 228.178 184.748C227.208 184.748 226.321 183.839 226.321 182.588C226.321 181.336 227.208 180.427 228.178 180.427C229.149 180.427 230.036 181.336 230.036 182.588Z" fill="white" stroke="#3896C9"/>
<path d="M239.857 167.955C239.857 169.207 238.97 170.116 238 170.116C237.029 170.116 236.143 169.207 236.143 167.955C236.143 166.704 237.029 165.795 238 165.795C238.97 165.795 239.857 166.704 239.857 167.955Z" fill="white" stroke="#3896C9"/>
<path d="M250.071 177.267C250.071 178.519 249.185 179.427 248.214 179.427C247.244 179.427 246.357 178.519 246.357 177.267C246.357 176.015 247.244 175.106 248.214 175.106C249.185 175.106 250.071 176.015 250.071 177.267Z" fill="white" stroke="#3896C9"/>
<path d="M260.678 166.625C260.678 167.877 259.792 168.786 258.821 168.786C257.851 168.786 256.964 167.877 256.964 166.625C256.964 165.373 257.851 164.465 258.821 164.465C259.792 164.465 260.678 165.373 260.678 166.625Z" fill="white" stroke="#3896C9"/>
<path d="M218 158.547C218 157.995 218.448 157.547 219 157.547H268C268.552 157.547 269 157.995 269 158.547V190.665C269 191.218 268.552 191.665 268 191.665H219C218.448 191.665 218 191.218 218 190.665V158.547Z" fill="white" fill-opacity="0.79"/>
<rect x="334" y="156.54" width="53" height="36.1324" rx="2" fill="white" stroke="#3896C9" stroke-width="2"/>
<rect x="334" y="156.54" width="53" height="36.1324" rx="2" fill="#3896C9" fill-opacity="0.08" stroke="#3896C9" stroke-width="2"/>
<path d="M369.173 175.108C369.173 179.535 365.526 183.137 361.01 183.137C356.494 183.137 352.846 179.535 352.846 175.108C352.846 170.68 356.494 167.078 361.01 167.078C365.526 167.078 369.173 170.68 369.173 175.108Z" fill="#3A97CA" fill-opacity="0.4" stroke="#1C6F9C"/>
<path d="M361.01 167.289C359.732 167.289 358.474 167.593 357.341 168.174C356.208 168.755 355.234 169.597 354.502 170.627L361.01 175.108V167.289Z" fill="white"/>
<path d="M361.01 167.289C359.732 167.289 358.474 167.593 357.341 168.174C356.208 168.755 355.234 169.597 354.502 170.627L361.01 175.108V167.289Z" fill="#1C6F9C"/>
<rect x="335" y="157.547" width="51" height="34.1185" rx="1" fill="white" fill-opacity="0.65"/>
<rect x="277" y="157.547" width="51" height="34.1185" rx="1" fill="white" fill-opacity="0.68"/>
<rect x="276" y="156.54" width="53" height="36.1324" rx="2" fill="white" stroke="#3896C9" stroke-width="2"/>
<rect x="276" y="156.54" width="53" height="36.1324" rx="2" fill="#3896C9" fill-opacity="0.08" stroke="#3896C9" stroke-width="2"/>
<ellipse cx="291" cy="173.603" rx="9" ry="9.03136" fill="#EFF7FB"/>
<path d="M300 173.603C300 178.591 295.971 182.634 291 182.634C286.029 182.634 282 178.591 282 173.603C282 168.615 286.029 164.571 291 164.571C295.971 164.571 300 168.615 300 173.603ZM283.409 173.603C283.409 177.809 286.808 181.22 291 181.22C295.192 181.22 298.591 177.809 298.591 173.603C298.591 169.396 295.192 165.986 291 165.986C286.808 165.986 283.409 169.396 283.409 173.603Z" fill="#3896C9" fill-opacity="0.2"/>
<ellipse cx="314" cy="173.603" rx="9" ry="9.03136" fill="#EFF7FB"/>
<path d="M323 173.603C323 178.591 318.971 182.634 314 182.634C309.029 182.634 305 178.591 305 173.603C305 168.615 309.029 164.571 314 164.571C318.971 164.571 323 168.615 323 173.603ZM306.409 173.603C306.409 177.809 309.808 181.22 314 181.22C318.192 181.22 321.591 177.809 321.591 173.603C321.591 169.396 318.192 165.986 314 165.986C309.808 165.986 306.409 169.396 306.409 173.603Z" fill="#3896C9" fill-opacity="0.2"/>
<rect x="277" y="157.547" width="51" height="34.1185" rx="1" fill="white" fill-opacity="0.47"/>
<path d="M218 205.697C218 203.488 219.791 201.697 222 201.697H383C385.209 201.697 387 203.488 387 205.697V272.951H218V205.697Z" fill="#C4C4C4" fill-opacity="0.1" stroke="#3896C9" stroke-width="2"/>
<rect x="233" y="238.826" width="53" height="8.03484" rx="1" stroke="#3896C9" stroke-width="2"/>
<rect x="233" y="255.885" width="23" height="8.03484" rx="1" stroke="#3896C9" stroke-width="2"/>
<rect x="263" y="255.885" width="23" height="8.03484" rx="1" stroke="#3896C9" stroke-width="2"/>
<rect x="233" y="222.77" width="8" height="8.03484" rx="1" stroke="#3896C9" stroke-width="2"/>
<rect x="248" y="222.77" width="8" height="8.03484" rx="1" stroke="#3896C9" stroke-width="2"/>
<rect x="262" y="222.77" width="8" height="8.03484" rx="1" stroke="#3896C9" stroke-width="2"/>
<rect x="277" y="222.77" width="8" height="8.03484" rx="1" stroke="#3896C9" stroke-width="2"/>
<rect x="297" y="215.749" width="2" height="52.1812" rx="1" fill="#3896C9"/>
<rect x="310" y="222.77" width="53" height="8.03484" rx="1" stroke="#3896C9" stroke-width="2"/>
<rect x="309" y="239.829" width="2" height="24.0906" rx="1" stroke="#3896C9" stroke-width="2"/>
<rect x="316" y="249.864" width="2" height="14.0557" rx="1" stroke="#3896C9" stroke-width="2"/>
<rect x="324" y="256.888" width="2" height="7.03136" rx="1" stroke="#3896C9" stroke-width="2"/>
<rect x="331" y="246.854" width="2" height="17.0662" rx="1" stroke="#3896C9" stroke-width="2"/>
<rect x="339" y="252.875" width="2" height="11.0453" rx="1" stroke="#3896C9" stroke-width="2"/>
<rect x="346" y="249.864" width="2" height="14.0557" rx="1" stroke="#3896C9" stroke-width="2"/>
<rect x="353" y="239.829" width="2" height="24.0906" rx="1" stroke="#3896C9" stroke-width="2"/>
<rect x="361" y="248.86" width="2" height="15.0592" rx="1" stroke="#3896C9" stroke-width="2"/>
<path opacity="0.87" d="M218 205.697C218 203.488 219.791 201.697 222 201.697H383C385.209 201.697 387 203.488 387 205.697V272.951H218V205.697Z" fill="white" stroke="#3896C9" stroke-width="2"/>
<g filter="url(#filter1_d_4070_3927)">
<path d="M427 207.22C427 222.461 414.912 234.816 400 234.816C385.088 234.816 373 222.461 373 207.22C373 191.979 385.088 179.624 400 179.624C414.912 179.624 427 191.979 427 207.22ZM379.313 207.22C379.313 218.897 388.575 228.363 400 228.363C411.425 228.363 420.687 218.897 420.687 207.22C420.687 195.543 411.425 186.077 400 186.077C388.575 186.077 379.313 195.543 379.313 207.22Z" fill="#3896C9" fill-opacity="0.72" shape-rendering="crispEdges"/>
</g>
<path d="M427 207.22C427 222.461 414.912 234.816 400 234.816C385.088 234.816 373 222.461 373 207.22C373 191.979 385.088 179.624 400 179.624C414.912 179.624 427 191.979 427 207.22ZM374.252 207.22C374.252 221.754 385.78 233.536 400 233.536C414.22 233.536 425.748 221.754 425.748 207.22C425.748 192.686 414.22 180.903 400 180.903C385.78 180.903 374.252 192.686 374.252 207.22Z" fill="#1C6F9C"/>
<g filter="url(#filter2_d_4070_3927)">
<rect width="11.0191" height="3.00524" rx="1" transform="matrix(0.706605 -0.707608 0.705146 0.709062 417 230.571)" fill="#3896C9" fill-opacity="0.72" shape-rendering="crispEdges"/>
<rect x="0.705876" y="0.000726879" width="10.0191" height="2.00524" rx="0.5" transform="matrix(0.706605 -0.707608 0.705146 0.709062 417.207 231.071)" stroke="#1C6F9C" shape-rendering="crispEdges"/>
</g>
<g filter="url(#filter3_d_4070_3927)">
<path d="M421.41 235C420.631 234.216 420.633 232.948 421.413 232.166L426.373 227.2C427.153 226.418 428.418 226.419 429.196 227.202L441.85 239.926C443.408 241.492 443.405 244.03 441.844 245.593L439.711 247.729C438.15 249.292 435.621 249.29 434.064 247.723L421.41 235Z" fill="#6FB3D8"/>
<path d="M421.764 234.646C421.179 234.058 421.18 233.107 421.766 232.521L426.726 227.554C427.311 226.968 428.259 226.969 428.843 227.556L441.497 240.28C442.86 241.65 442.857 243.87 441.491 245.238L439.358 247.375C437.992 248.742 435.78 248.74 434.417 247.369L421.764 234.646Z" stroke="#1C6F9C"/>
</g>
<rect x="58" y="285.993" width="460" height="2.00697" fill="#3896C9"/>
<defs>
<filter id="filter0_d_4070_3927" x="383.019" y="29.9443" width="32.9919" height="36.3047" filterUnits="userSpaceOnUse" color-interpolation-filters="sRGB">
<feFlood flood-opacity="0" result="BackgroundImageFix"/>
<feColorMatrix in="SourceAlpha" type="matrix" values="0 0 0 0 0 0 0 0 0 0 0 0 0 0 0 0 0 0 127 0" result="hardAlpha"/>
<feOffset dx="3" dy="4"/>
<feGaussianBlur stdDeviation="2"/>
<feComposite in2="hardAlpha" operator="out"/>
<feColorMatrix type="matrix" values="0 0 0 0 0.168299 0 0 0 0 0.413045 0 0 0 0 0.545833 0 0 0 0.32 0"/>
<feBlend mode="normal" in2="BackgroundImageFix" result="effect1_dropShadow_4070_3927"/>
<feBlend mode="normal" in="SourceGraphic" in2="effect1_dropShadow_4070_3927" result="shape"/>
</filter>
<filter id="filter1_d_4070_3927" x="369" y="177.624" width="62" height="63.1914" filterUnits="userSpaceOnUse" color-interpolation-filters="sRGB">
<feFlood flood-opacity="0" result="BackgroundImageFix"/>
<feColorMatrix in="SourceAlpha" type="matrix" values="0 0 0 0 0 0 0 0 0 0 0 0 0 0 0 0 0 0 127 0" result="hardAlpha"/>
<feOffset dy="2"/>
<feGaussianBlur stdDeviation="2"/>
<feComposite in2="hardAlpha" operator="out"/>
<feColorMatrix type="matrix" values="0 0 0 0 0 0 0 0 0 0 0 0 0 0 0 0 0 0 0.15 0"/>
<feBlend mode="normal" in2="BackgroundImageFix" result="effect1_dropShadow_4070_3927"/>
<feBlend mode="normal" in="SourceGraphic" in2="effect1_dropShadow_4070_3927" result="shape"/>
</filter>
<filter id="filter2_d_4070_3927" x="413.414" y="223.189" width="17.0784" height="17.0981" filterUnits="userSpaceOnUse" color-interpolation-filters="sRGB">
<feFlood flood-opacity="0" result="BackgroundImageFix"/>
<feColorMatrix in="SourceAlpha" type="matrix" values="0 0 0 0 0 0 0 0 0 0 0 0 0 0 0 0 0 0 127 0" result="hardAlpha"/>
<feOffset dy="4"/>
<feGaussianBlur stdDeviation="2"/>
<feComposite in2="hardAlpha" operator="out"/>
<feColorMatrix type="matrix" values="0 0 0 0 0 0 0 0 0 0 0 0 0 0 0 0 0 0 0.15 0"/>
<feBlend mode="normal" in2="BackgroundImageFix" result="effect1_dropShadow_4070_3927"/>
<feBlend mode="normal" in="SourceGraphic" in2="effect1_dropShadow_4070_3927" result="shape"/>
</filter>
<filter id="filter3_d_4070_3927" x="416.827" y="226.614" width="30.1895" height="30.2856" filterUnits="userSpaceOnUse" color-interpolation-filters="sRGB">
<feFlood flood-opacity="0" result="BackgroundImageFix"/>
<feColorMatrix in="SourceAlpha" type="matrix" values="0 0 0 0 0 0 0 0 0 0 0 0 0 0 0 0 0 0 127 0" result="hardAlpha"/>
<feOffset dy="4"/>
<feGaussianBlur stdDeviation="2"/>
<feComposite in2="hardAlpha" operator="out"/>
<feColorMatrix type="matrix" values="0 0 0 0 0 0 0 0 0 0 0 0 0 0 0 0 0 0 0.15 0"/>
<feBlend mode="normal" in2="BackgroundImageFix" result="effect1_dropShadow_4070_3927"/>
<feBlend mode="normal" in="SourceGraphic" in2="effect1_dropShadow_4070_3927" result="shape"/>
</filter>
</defs>
</svg>
