<svg width="40" height="40" viewBox="0 0 40 40" fill="none" xmlns="http://www.w3.org/2000/svg">
<circle cx="20" cy="20" r="20" fill="url(#paint0_radial_3794_4686)" fill-opacity="0.15"/>
<path d="M15.9761 6.75V7.43094V10.4179C11.9226 11.9952 9.0625 15.8774 9.0625 20.4536C9.0625 26.3746 13.9361 31.25 20.0013 31.25C26.0041 31.25 30.9375 26.38 30.9375 20.4536C30.9375 15.8838 28.0574 12.0063 24.0293 10.4232V6.75H15.9761ZM17.3555 8.11187H22.6498V9.98967C21.8048 9.78066 20.9273 9.65875 20.0202 9.65722C20.0139 9.65722 20.0076 9.65722 20.0013 9.65722C19.0864 9.65722 18.2038 9.78025 17.3556 9.98694L17.3555 8.11187ZM20.0013 11.0243C20.3196 11.0243 20.6337 11.0409 20.9443 11.0697C20.9931 11.073 21.0411 11.0829 21.0899 11.0895C21.2953 11.1127 21.4975 11.1471 21.6988 11.1825C22.1731 11.2691 22.6386 11.3842 23.089 11.5362C26.8399 12.7972 29.5634 16.2836 29.5634 20.4547C29.5634 25.6354 25.2486 29.8946 20.0014 29.8946C14.6827 29.8946 10.4474 25.6407 10.4474 20.4547C10.4474 16.2821 13.1171 12.8007 16.8787 11.5389C16.8821 11.5377 16.886 11.5374 16.8894 11.5361C17.3468 11.3824 17.8203 11.2669 18.3039 11.1797C18.4858 11.1466 18.6681 11.1186 18.8536 11.0974C18.9243 11.0875 18.995 11.0775 19.0665 11.0709C19.3736 11.0411 19.6859 11.0256 20.0014 11.0256L20.0013 11.0243ZM19.9906 12.4208C19.9443 12.4229 19.8983 12.4295 19.8533 12.4406C15.4528 12.5187 11.9717 16.0248 11.8917 20.3058C11.8687 20.4057 11.8687 20.5093 11.8917 20.6091C11.9735 24.8375 15.3742 28.3048 19.6998 28.461C19.7007 28.4619 19.7016 28.4629 19.7025 28.4638C19.7978 28.5098 19.9026 28.5335 20.0086 28.533C20.1147 28.5325 20.2193 28.5079 20.3141 28.461C24.6317 28.2953 28.1276 24.7554 28.1276 20.4548C28.1276 16.1011 24.5462 12.5236 20.1552 12.4407C20.1013 12.4276 20.0461 12.4209 19.9906 12.4208H19.9906ZM19.3008 13.8332C19.3061 13.8326 19.3117 13.8337 19.317 13.8332V15.0939C19.311 15.1868 19.3243 15.28 19.3562 15.3676C19.388 15.4553 19.4377 15.5356 19.5023 15.6035C19.5668 15.6714 19.6447 15.7255 19.7312 15.7625C19.8178 15.7995 19.9111 15.8186 20.0054 15.8186C20.0997 15.8186 20.193 15.7995 20.2796 15.7625C20.3661 15.7255 20.4441 15.6714 20.5086 15.6035C20.5731 15.5356 20.6228 15.4553 20.6547 15.3676C20.6865 15.28 20.6998 15.1868 20.6938 15.0939V13.8332C23.8521 14.1549 26.3816 16.6518 26.7075 19.77H25.4277C25.2449 19.7714 25.0701 19.8439 24.9413 19.972C24.8125 20.1 24.7403 20.2732 24.7403 20.4536C24.7403 20.634 24.8125 20.8072 24.9413 20.9352C25.0701 21.0633 25.2449 21.1358 25.4277 21.1372H26.7075C26.3817 24.2553 23.8521 26.7523 20.6938 27.0739V25.8106C20.6953 25.7191 20.678 25.6283 20.6432 25.5436C20.6083 25.4589 20.5565 25.3819 20.4909 25.3173C20.4253 25.2528 20.3471 25.2021 20.2612 25.168C20.1752 25.1339 20.0832 25.1172 19.9906 25.119C19.8086 25.1232 19.6357 25.1982 19.5095 25.3277C19.3833 25.4573 19.3141 25.6309 19.317 25.8106V27.0739C16.1032 26.7624 13.6536 24.2627 13.3303 21.1372H14.5831C14.7659 21.1358 14.9407 21.0633 15.0695 20.9352C15.1983 20.8072 15.2705 20.634 15.2705 20.4536C15.2705 20.2732 15.1983 20.1 15.0695 19.972C14.9407 19.8439 14.7659 19.7714 14.5831 19.77H13.3303C13.6531 16.6496 16.0947 14.1514 19.3008 13.8332H19.3008ZM19.9906 16.3228C19.8086 16.327 19.6357 16.402 19.5095 16.5316C19.3833 16.6611 19.3141 16.8347 19.317 17.0144V20.1876C19.2864 20.3105 19.291 20.4395 19.3305 20.56C19.3522 20.6612 19.3969 20.7561 19.4613 20.8377C19.5257 20.9193 19.6081 20.9853 19.7022 21.0308L22.2725 23.5709C22.3357 23.6387 22.4121 23.6931 22.4971 23.7309C22.5821 23.7687 22.674 23.7892 22.7673 23.7911C22.8605 23.7929 22.9532 23.7761 23.0397 23.7416C23.1262 23.7072 23.2047 23.6558 23.2706 23.5906C23.3364 23.5254 23.3883 23.4478 23.4229 23.3623C23.4576 23.2769 23.4743 23.1853 23.4722 23.0933C23.4701 23.0012 23.4491 22.9105 23.4106 22.8266C23.372 22.7428 23.3167 22.6676 23.2479 22.6054L20.6939 20.0838V17.0144C20.6953 16.923 20.6781 16.8321 20.6433 16.7474C20.6084 16.6626 20.5566 16.5857 20.491 16.5212C20.4254 16.4566 20.3472 16.4058 20.2613 16.3717C20.1753 16.3376 20.0833 16.321 19.9907 16.3228H19.9906Z" fill="#3896C9"/>
<defs>
<radialGradient id="paint0_radial_3794_4686" cx="0" cy="0" r="1" gradientUnits="userSpaceOnUse" gradientTransform="translate(20 20) rotate(90) scale(20)">
<stop stop-color="#3896C9" stop-opacity="0"/>
<stop offset="0.640625" stop-color="#3896C9"/>
</radialGradient>
</defs>
</svg>
