<svg width="9" height="9" viewBox="0 0 9 9" fill="none" xmlns="http://www.w3.org/2000/svg">
<path d="M5.30276 4.5L8.94117 0.861829C9.01948 0.783421 9.01948 0.656374 8.94117 0.577966L8.42226 0.0587826C8.38462 0.0212376 8.33342 0 8.28024 0C8.22695 0 8.17585 0.0212376 8.13821 0.0587826L4.49989 3.69705L0.86158 0.0587826C0.786204 -0.0165919 0.652804 -0.0164971 0.577618 0.0587826L0.0588071 0.577966C-0.0196024 0.656374 -0.0196024 0.783421 0.0588071 0.861829L3.69712 4.5L0.0588071 8.13817C-0.0196024 8.21658 -0.0196024 8.34363 0.0588071 8.42203L0.577713 8.94122C0.615353 8.97876 0.666457 9 0.719741 9C0.773025 9 0.824034 8.97876 0.861675 8.94122L4.49999 5.30295L8.1383 8.94122C8.17594 8.97876 8.22714 9 8.28033 9C8.33352 9 8.38472 8.97876 8.42236 8.94122L8.94126 8.42203C9.01958 8.34363 9.01958 8.21658 8.94126 8.13817L5.30276 4.5Z" fill="#0A0C1A" fill-opacity="0.6"/>
</svg>
