<svg width="15" height="16" viewBox="0 0 15 16" fill="none" xmlns="http://www.w3.org/2000/svg">
<path d="M8.83793 7.51099L14.9019 1.44737C15.0325 1.31669 15.0325 1.10494 14.9019 0.974263L14.0371 0.108957C13.9744 0.0463823 13.889 0.0109863 13.8004 0.0109863C13.7116 0.0109863 13.6264 0.0463823 13.5637 0.108957L7.49982 6.17273L1.43597 0.108957C1.31034 -0.0166668 1.08801 -0.0165088 0.962697 0.108957L0.0980118 0.974263C-0.0326706 1.10494 -0.0326706 1.31669 0.0980118 1.44737L6.16187 7.51099L0.0980118 13.5746C-0.0326706 13.7053 -0.0326706 13.917 0.0980118 14.0477L0.962855 14.913C1.02559 14.9756 1.11076 15.011 1.19957 15.011C1.28838 15.011 1.37339 14.9756 1.43612 14.913L7.49998 8.84924L13.5638 14.913C13.6266 14.9756 13.7119 15.011 13.8005 15.011C13.8892 15.011 13.9745 14.9756 14.0373 14.913L14.9021 14.0477C15.0326 13.917 15.0326 13.7053 14.9021 13.5746L8.83793 7.51099Z" fill="black" fill-opacity="0.39"/>
</svg>
