<svg width="16" height="16" viewBox="0 0 16 16" fill="none" xmlns="http://www.w3.org/2000/svg">
<g clip-path="url(#clip0_3142_190)">
<path d="M15.3325 1.45356H12V0.728146C12.0003 0.632424 11.9833 0.537577 11.9499 0.449072C11.9164 0.360567 11.8673 0.280155 11.8052 0.212469C11.7432 0.144783 11.6695 0.091162 11.5883 0.0546972C11.5072 0.0182324 11.4203 -0.000355392 11.3325 5.146e-06H4.6675C4.57975 -0.000355392 4.4928 0.0182324 4.41167 0.0546972C4.33053 0.091162 4.25682 0.144783 4.19477 0.212469C4.13272 0.280155 4.08356 0.360567 4.05014 0.449072C4.01671 0.537577 3.99967 0.632424 4 0.728146V1.45356H0.6675C0.490468 1.45356 0.320687 1.53027 0.195506 1.66683C0.0703257 1.80338 0 1.98858 0 2.1817C0 2.37481 0.0703257 2.56002 0.195506 2.69657C0.320687 2.83313 0.490468 2.90984 0.6675 2.90984H2V13.8183C2 14.3969 2.21071 14.9519 2.58579 15.361C2.96086 15.7701 3.46957 16 4 16H12C12.5304 16 13.0391 15.7701 13.4142 15.361C13.7893 14.9519 14 14.3969 14 13.8183V2.90984H15.3325C15.5095 2.90984 15.6793 2.83313 15.8045 2.69657C15.9297 2.56002 16 2.37481 16 2.1817C16 1.98858 15.9297 1.80338 15.8045 1.66683C15.6793 1.53027 15.5095 1.45356 15.3325 1.45356V1.45356ZM12.6675 13.8183C12.6668 14.011 12.5962 14.1955 12.4711 14.3314C12.346 14.4674 12.1766 14.5437 12 14.5437H4C3.8234 14.5437 3.654 14.4674 3.52889 14.3314C3.40378 14.1955 3.33316 14.011 3.3325 13.8183V2.90984H12.6675V13.8183Z" fill="#3896C9"/>
<path d="M5.875 12.4746C6.04036 12.4746 6.19897 12.3978 6.31612 12.2609C6.43326 12.124 6.49938 11.9383 6.5 11.7443V5.88561C6.5 5.6912 6.43415 5.50476 6.31694 5.36729C6.19973 5.22982 6.04076 5.15259 5.875 5.15259C5.70924 5.15259 5.55027 5.22982 5.43306 5.36729C5.31585 5.50476 5.25 5.6912 5.25 5.88561V11.7443C5.25062 11.9383 5.31674 12.124 5.43388 12.2609C5.55103 12.3978 5.70964 12.4746 5.875 12.4746Z" fill="#3896C9"/>
<path d="M9.875 12.4746C10.0404 12.4746 10.199 12.3978 10.3161 12.2609C10.4333 12.124 10.4994 11.9383 10.5 11.7443V5.88561C10.5 5.6912 10.4342 5.50476 10.3169 5.36729C10.1997 5.22982 10.0408 5.15259 9.875 5.15259C9.70924 5.15259 9.55027 5.22982 9.43306 5.36729C9.31585 5.50476 9.25 5.6912 9.25 5.88561V11.7443C9.25062 11.9383 9.31674 12.124 9.43388 12.2609C9.55103 12.3978 9.70964 12.4746 9.875 12.4746Z" fill="#3896C9"/>
</g>
<defs>
<clipPath id="clip0_3142_190">
<rect width="16" height="16" fill="white"/>
</clipPath>
</defs>
</svg>
