<svg width="46" height="46" viewBox="0 0 46 46" fill="none" xmlns="http://www.w3.org/2000/svg">
<path d="M44.0809 4.17898H34.5V2.09342C34.5009 1.81822 34.452 1.54553 34.3559 1.29108C34.2598 1.03663 34.1184 0.805445 33.94 0.610847C33.7617 0.41625 33.5497 0.262091 33.3165 0.157254C33.0832 0.0524182 32.8332 -0.00102175 32.5809 1.47948e-05H13.4191C13.1668 -0.00102175 12.9168 0.0524182 12.6835 0.157254C12.4503 0.262091 12.2384 0.41625 12.06 0.610847C11.8816 0.805445 11.7402 1.03663 11.6441 1.29108C11.548 1.54553 11.4991 1.81822 11.5 2.09342V4.17898H1.91906C1.4101 4.17898 0.921974 4.39954 0.56208 4.79213C0.202186 5.18472 0 5.71718 0 6.27239C0 6.82759 0.202186 7.36006 0.56208 7.75265C0.921974 8.14524 1.4101 8.36579 1.91906 8.36579H5.75V39.7276C5.75 41.3912 6.3558 42.9866 7.43414 44.1629C8.51247 45.3392 9.97501 46 11.5 46H34.5C36.025 46 37.4875 45.3392 38.5659 44.1629C39.6442 42.9866 40.25 41.3912 40.25 39.7276V8.36579H44.0809C44.5899 8.36579 45.078 8.14524 45.4379 7.75265C45.7978 7.36006 46 6.82759 46 6.27239C46 5.71718 45.7978 5.18472 45.4379 4.79213C45.078 4.39954 44.5899 4.17898 44.0809 4.17898ZM36.4191 39.7276C36.4172 40.2815 36.2141 40.8119 35.8544 41.2028C35.4948 41.5937 35.0077 41.8132 34.5 41.8132H11.5C10.9923 41.8132 10.5052 41.5937 10.1456 41.2028C9.78586 40.8119 9.58284 40.2815 9.58094 39.7276V8.36579H36.4191V39.7276Z" fill="url(#paint0_linear_3338_405)"/>
<path d="M16.8906 35.8643C17.366 35.8643 17.822 35.6434 18.1588 35.2499C18.4956 34.8563 18.6857 34.3223 18.6875 33.7648V16.9209C18.6875 16.362 18.4982 15.826 18.1612 15.4307C17.8242 15.0355 17.3672 14.8135 16.8906 14.8135C16.4141 14.8135 15.957 15.0355 15.62 15.4307C15.2831 15.826 15.0938 16.362 15.0938 16.9209V33.7648C15.0955 34.3223 15.2856 34.8563 15.6224 35.2499C15.9592 35.6434 16.4152 35.8643 16.8906 35.8643Z" fill="url(#paint1_linear_3338_405)"/>
<path d="M28.3906 35.8643C28.866 35.8643 29.322 35.6434 29.6588 35.2499C29.9956 34.8563 30.1857 34.3223 30.1875 33.7648V16.9209C30.1875 16.362 29.9982 15.826 29.6612 15.4307C29.3242 15.0355 28.8672 14.8135 28.3906 14.8135C27.9141 14.8135 27.457 15.0355 27.12 15.4307C26.7831 15.826 26.5938 16.362 26.5938 16.9209V33.7648C26.5955 34.3223 26.7856 34.8563 27.1224 35.2499C27.4592 35.6434 27.9152 35.8643 28.3906 35.8643Z" fill="url(#paint2_linear_3338_405)"/>
<defs>
<linearGradient id="paint0_linear_3338_405" x1="27.5" y1="6.5" x2="-4" y2="62" gradientUnits="userSpaceOnUse">
<stop stop-color="#3896C9"/>
<stop offset="1" stop-color="#3896C9" stop-opacity="0"/>
</linearGradient>
<linearGradient id="paint1_linear_3338_405" x1="16.8906" y1="14.8135" x2="13" y2="45.5" gradientUnits="userSpaceOnUse">
<stop stop-color="#3896C9"/>
<stop offset="1" stop-color="#3896C9" stop-opacity="0"/>
</linearGradient>
<linearGradient id="paint2_linear_3338_405" x1="28.3906" y1="14.8135" x2="13.5" y2="44" gradientUnits="userSpaceOnUse">
<stop stop-color="#3896C9"/>
<stop offset="1" stop-color="#3896C9" stop-opacity="0"/>
</linearGradient>
</defs>
</svg>
