<svg width="6" height="6" viewBox="0 0 6 6" fill="none" xmlns="http://www.w3.org/2000/svg">
<path d="M3.17038 4.91315L4.931 3.15815C4.97375 3.11057 4.99666 3.04844 4.99504 2.9845C4.99341 2.92057 4.96738 2.85968 4.92227 2.81433C4.87717 2.76899 4.81641 2.74263 4.75249 2.74066C4.68856 2.7387 4.6263 2.76128 4.5785 2.80378L3.25475 4.12284L3.25475 0.265964C3.25684 0.231866 3.25193 0.197702 3.24032 0.165575C3.22871 0.133447 3.21064 0.104037 3.18724 0.0791531C3.16383 0.0542698 3.13558 0.0344405 3.10423 0.0208859C3.07287 0.00733185 3.03907 0.000339031 3.00491 0.000339031C2.97075 0.000339031 2.93695 0.00733185 2.90559 0.0208859C2.87423 0.0344405 2.84598 0.0542698 2.82258 0.0791531C2.79917 0.104037 2.78111 0.133447 2.7695 0.165575C2.75789 0.197702 2.75298 0.231866 2.75507 0.265964L2.75507 4.14253L1.43225 2.80471C1.38533 2.75794 1.32178 2.73168 1.25553 2.73168C1.18928 2.73168 1.12574 2.75794 1.07882 2.80471C1.05525 2.82779 1.03655 2.85536 1.02382 2.8858C1.0111 2.91624 1.00462 2.94891 1.00475 2.9819C1.00475 3.04785 1.03068 3.11115 1.07694 3.15815L2.81225 4.91221C2.8355 4.93551 2.86312 4.954 2.89353 4.96661C2.92393 4.97923 2.95652 4.98572 2.98944 4.98572C3.02236 4.98572 3.05495 4.97923 3.08535 4.96661C3.11576 4.954 3.14338 4.93551 3.16663 4.91221L3.17038 4.91315Z" fill="#29251E"/>
<path d="M5.25 5.99972H0.75C0.551088 5.99972 0.360322 5.9207 0.21967 5.78005C0.0790176 5.6394 0 5.44863 0 5.24972V3.49941C0.00389878 3.43579 0.0319186 3.37605 0.078345 3.33239C0.124771 3.28872 0.186107 3.2644 0.249844 3.2644C0.31358 3.2644 0.374916 3.28872 0.421342 3.33239C0.467769 3.37605 0.495789 3.43579 0.499687 3.49941V5.24972C0.499687 5.3161 0.52606 5.37977 0.573002 5.42672C0.619945 5.47366 0.683613 5.50003 0.75 5.50003H5.25C5.31639 5.50003 5.38005 5.47366 5.427 5.42672C5.47394 5.37977 5.50031 5.3161 5.50031 5.24972V3.49941C5.50421 3.43579 5.53223 3.37605 5.57866 3.33239C5.62508 3.28872 5.68642 3.2644 5.75016 3.2644C5.81389 3.2644 5.87523 3.28872 5.92165 3.33239C5.96808 3.37605 5.9961 3.43579 6 3.49941V5.24972C6 5.44863 5.92098 5.6394 5.78033 5.78005C5.63968 5.9207 5.44891 5.99972 5.25 5.99972Z" fill="#29251E"/>
</svg>
