<svg width="12" height="11" viewBox="0 0 12 11" fill="none" xmlns="http://www.w3.org/2000/svg">
<path d="M11.8531 10.2188L8.96816 7.57429C9.68327 6.7751 10.1143 5.75143 10.1143 4.63571C10.1143 2.07653 7.84898 0 5.05714 0C2.26286 0 0 2.07653 0 4.63571C0 7.1949 2.26286 9.27143 5.05714 9.27143C6.27429 9.27143 7.38857 8.87857 8.26041 8.22306L11.1453 10.8653C11.3412 11.0449 11.6571 11.0449 11.8531 10.8653C12.049 10.688 12.049 10.3961 11.8531 10.2188ZM5.05714 8.34877C2.82122 8.34877 1.00408 6.68306 1.00408 4.63571C1.00408 2.58837 2.82122 0.920408 5.05714 0.920408C7.29061 0.920408 9.1102 2.58837 9.1102 4.63571C9.1102 6.68306 7.29061 8.34877 5.05714 8.34877Z" fill="black" fill-opacity="0.8"/>
</svg>
