<svg width="97" height="83" viewBox="0 0 97 83" fill="none" xmlns="http://www.w3.org/2000/svg">
<rect width="97" height="83" rx="11" fill="#EDF0F4"/>
<path d="M67.75 21.4312V19.4375C67.75 16.3562 65.3125 14 62.125 14H35.875C32.6875 14 30.25 16.3562 30.25 19.4375V21.4312C25.9375 22.3375 22.75 25.9625 22.75 30.3125V55.6875C22.75 60.7625 26.875 64.75 32.125 64.75H65.875C71.125 64.75 75.25 60.7625 75.25 55.6875V30.3125C75.25 25.9625 72.0625 22.3375 67.75 21.4312ZM71.5 30.3125V31.0375L67.75 33.2125V25.2375C70 25.9625 71.5 27.9563 71.5 30.3125ZM34 19.4375C34 18.35 34.75 17.625 35.875 17.625H62.125C63.25 17.625 64 18.35 64 19.4375V35.5687L49 44.45L34 35.5687V19.4375ZM30.25 25.2375V33.3937L26.5 31.0375V30.3125C26.5 27.9563 28 25.9625 30.25 25.2375Z" fill="#405051" fill-opacity="0.81"/>
<path d="M39.625 24.875H52.75C53.875 24.875 54.625 24.15 54.625 23.0625C54.625 21.975 53.875 21.25 52.75 21.25H39.625C38.5 21.25 37.75 21.975 37.75 23.0625C37.75 24.15 38.5 24.875 39.625 24.875Z" fill="#405051" fill-opacity="0.81"/>
<path d="M39.625 32.125H45.25C46.375 32.125 47.125 31.4 47.125 30.3125C47.125 29.225 46.375 28.5 45.25 28.5H39.625C38.5 28.5 37.75 29.225 37.75 30.3125C37.75 31.4 38.5 32.125 39.625 32.125Z" fill="#405051" fill-opacity="0.81"/>
</svg>
