<svg width="48" height="47" viewBox="0 0 48 47" fill="none" xmlns="http://www.w3.org/2000/svg">
<path fill-rule="evenodd" clip-rule="evenodd" d="M22.7822 0.136473C21.5546 0.382439 21.02 0.698535 18.4445 2.70174L16.7372 4.02963H12.1057C7.08046 4.02963 7.03493 4.03386 6.61195 4.53646C6.4016 4.78637 6.39865 4.83821 6.39402 8.43099L6.3894 12.0722L3.28863 14.462C1.58326 15.7764 0.145875 16.9236 0.0944415 17.0114C-0.0467796 17.2525 -0.0223905 42.3489 0.119519 42.897C0.298111 43.5864 0.826215 44.5713 1.31754 45.1315C1.90386 45.7999 3.06372 46.5257 3.97212 46.7926L4.67773 47H24.0022H43.3267L44.0192 46.7964C45.4545 46.3742 46.733 45.3407 47.3987 44.0642C47.6112 43.6568 47.8324 43.1068 47.8902 42.8421C47.9617 42.5148 47.9966 38.3241 47.9994 29.7465C48.0032 17.7927 47.9943 17.1216 47.8287 16.9281C47.7325 16.8158 46.2723 15.6459 44.5838 14.3282L41.5138 11.9324L41.486 8.31224C41.4593 4.84171 41.45 4.68361 41.2615 4.48609C40.8334 4.03754 40.7394 4.02963 35.8516 4.02963H31.2714L29.5299 2.66708C26.9025 0.6114 26.529 0.395674 25.1307 0.125719C24.247 -0.0449672 23.6742 -0.0423016 22.7822 0.136473ZM24.6906 2.23499C25.2979 2.31606 25.8107 2.58528 26.7959 3.34027L27.6355 3.98368L25.8188 4.00868C24.8197 4.02247 23.1847 4.02247 22.1854 4.00868L20.3686 3.98368L21.1497 3.38623C21.5792 3.05763 22.1441 2.67591 22.4049 2.53803C22.8512 2.30209 23.7733 2.09078 24.1006 2.14942C24.1817 2.16394 24.4472 2.20245 24.6906 2.23499ZM39.1411 13.9335L39.1352 21.7233L32.6552 26.2272C29.0912 28.7043 25.8788 30.8758 25.5166 31.0527C24.9109 31.3486 24.7892 31.3744 24.0022 31.3744C23.2137 31.3744 23.0953 31.3491 22.4958 31.0527C22.1379 30.8758 18.8786 28.6642 15.2529 26.1381L8.66064 21.5453V13.9057C8.66064 9.70402 8.69015 6.23863 8.72624 6.20499C8.76223 6.17126 15.6217 6.14368 23.9695 6.14368H39.1471L39.1411 13.9335ZM43.455 16.2443C44.331 16.9213 45.0477 17.5023 45.0477 17.5355C45.0477 17.5687 44.395 18.0462 43.5971 18.5968C42.7993 19.1473 42.0028 19.6983 41.827 19.8212L41.5073 20.0447V17.409C41.5073 14.8853 41.5149 14.7784 41.6848 14.8934C41.7824 14.9595 42.579 15.5674 43.455 16.2443ZM6.37691 18.6439L6.34957 19.9415L4.65738 18.7644C3.72675 18.1168 2.97521 17.5539 2.98731 17.5132C2.99951 17.4726 3.76098 16.8604 4.67951 16.1528L6.34957 14.8663L6.37691 16.1062C6.39196 16.7882 6.39196 17.9302 6.37691 18.6439ZM11.8326 26.411C17.6017 30.4433 20.9103 32.6971 21.4162 32.9395C22.3581 33.3909 22.9866 33.5344 24.0201 33.5344C24.9861 33.5344 25.8143 33.3438 26.6575 32.9272C27.0091 32.7536 31.3239 29.7971 36.246 26.3572C41.168 22.9174 45.3176 20.0197 45.4671 19.9178L45.7392 19.7326L45.713 31.1144L45.6869 42.4962L45.4318 43.0017C45.0934 43.6721 44.454 44.253 43.6709 44.6015L43.0317 44.886L24.4939 44.9116C11.9083 44.9291 5.74073 44.9063 5.2851 44.8408C4.20215 44.6851 3.39426 44.2121 2.8159 43.3953C2.25308 42.6004 2.27078 43.0055 2.2695 30.8839L2.26832 19.7312L2.64498 19.9919C2.85219 20.1354 6.98664 23.0239 11.8326 26.411Z" fill="url(#paint0_linear_3367_2024)" fill-opacity="0.89"/>
<ellipse cx="23.9512" cy="12.8956" rx="3.23926" ry="3.58917" fill="url(#paint1_linear_3367_2024)"/>
<rect x="13.5469" y="19.2824" width="20.8098" height="1.63144" rx="0.81572" fill="url(#paint2_linear_3367_2024)" fill-opacity="0.89"/>
<rect x="16.4912" y="22.0015" width="14.9202" height="1.63144" rx="0.81572" fill="url(#paint3_linear_3367_2024)" fill-opacity="0.89"/>
<rect x="19.2393" y="24.7206" width="9.52147" height="1.63144" rx="0.81572" fill="url(#paint4_linear_3367_2024)" fill-opacity="0.89"/>
<defs>
<linearGradient id="paint0_linear_3367_2024" x1="27.2489" y1="10.8314" x2="-12.9827" y2="62.408" gradientUnits="userSpaceOnUse">
<stop stop-color="#3896C9"/>
<stop offset="1" stop-color="#3896C9" stop-opacity="0"/>
</linearGradient>
<linearGradient id="paint1_linear_3367_2024" x1="27.1904" y1="9.30646" x2="16.7124" y2="18.6168" gradientUnits="userSpaceOnUse">
<stop stop-color="#3896C9"/>
<stop offset="1" stop-color="#3896C9" stop-opacity="0"/>
</linearGradient>
<linearGradient id="paint2_linear_3367_2024" x1="25.3603" y1="19.6584" x2="25.1812" y2="22.5268" gradientUnits="userSpaceOnUse">
<stop stop-color="#3896C9"/>
<stop offset="1" stop-color="#3896C9" stop-opacity="0"/>
</linearGradient>
<linearGradient id="paint3_linear_3367_2024" x1="24.9612" y1="22.3775" x2="24.7123" y2="25.2354" gradientUnits="userSpaceOnUse">
<stop stop-color="#3896C9"/>
<stop offset="1" stop-color="#3896C9" stop-opacity="0"/>
</linearGradient>
<linearGradient id="paint4_linear_3367_2024" x1="24.6445" y1="25.0965" x2="24.2586" y2="27.9235" gradientUnits="userSpaceOnUse">
<stop stop-color="#3896C9"/>
<stop offset="1" stop-color="#3896C9" stop-opacity="0"/>
</linearGradient>
</defs>
</svg>
