<svg width="24" height="18" viewBox="0 0 24 18" fill="none" xmlns="http://www.w3.org/2000/svg">
<path d="M18.375 17.6797H5.625C2.52338 17.6797 0 15.3666 0 12.5234V5.47656C0 2.63341 2.52338 0.320312 5.625 0.320312H18.375C21.4766 0.320312 24 2.63341 24 5.47656V12.5234C24 15.3666 21.4766 17.6797 18.375 17.6797ZM5.625 2.03906C3.55725 2.03906 1.875 3.58113 1.875 5.47656V12.5234C1.875 14.4189 3.55725 15.9609 5.625 15.9609H18.375C20.4427 15.9609 22.125 14.4189 22.125 12.5234V5.47656C22.125 3.58113 20.4427 2.03906 18.375 2.03906H5.625ZM15.4353 10.5214L20.0691 7.2767C20.4806 6.98859 20.5593 6.44929 20.245 6.07211C19.9307 5.69493 19.3424 5.62274 18.9309 5.91085L14.2977 9.15512C12.9598 10.0905 11.0914 10.0912 9.75267 9.15748L5.26294 5.95824C4.85414 5.66691 4.26511 5.73459 3.94739 6.10932C3.62962 6.48405 3.70341 7.02395 4.1122 7.31524L8.60541 10.5169C8.60766 10.5186 8.60995 10.5201 8.61225 10.5217C9.6165 11.2238 10.8198 11.5749 12.0233 11.5749C13.2269 11.5749 14.4307 11.2236 15.4353 10.5214Z" fill="#405051" fill-opacity="0.77"/>
</svg>
