<svg width="6" height="6" viewBox="0 0 6 6" fill="none" xmlns="http://www.w3.org/2000/svg">
<path d="M2.82962 0.0731777L1.069 1.82818C1.02625 1.87575 1.00334 1.93789 1.00496 2.00182C1.00659 2.06576 1.03262 2.12665 1.07773 2.172C1.12283 2.21734 1.18359 2.2437 1.24751 2.24566C1.31144 2.24763 1.3737 2.22504 1.4215 2.18255L2.74525 0.86349V4.72036C2.74316 4.75446 2.74807 4.78863 2.75968 4.82075C2.77129 4.85288 2.78936 4.88229 2.81276 4.90718C2.83617 4.93206 2.86442 4.95189 2.89577 4.96544C2.92713 4.979 2.96093 4.98599 2.99509 4.98599C3.02925 4.98599 3.06305 4.979 3.09441 4.96544C3.12577 4.95189 3.15402 4.93206 3.17742 4.90718C3.20083 4.88229 3.21889 4.85288 3.2305 4.82075C3.24211 4.78863 3.24702 4.75446 3.24493 4.72036V0.843803L4.56775 2.18162C4.61467 2.22839 4.67822 2.25465 4.74447 2.25465C4.81072 2.25465 4.87426 2.22839 4.92118 2.18162C4.94475 2.15854 4.96345 2.13096 4.97618 2.10053C4.9889 2.07009 4.99538 2.03741 4.99525 2.00443C4.99525 1.93848 4.96932 1.87518 4.92306 1.82818L3.18775 0.0741152C3.1645 0.0508146 3.13688 0.0323287 3.10647 0.0197157C3.07607 0.00710269 3.04348 0.000610352 3.01056 0.000610352C2.97764 0.000610352 2.94505 0.00710269 2.91465 0.0197157C2.88424 0.0323287 2.85662 0.0508146 2.83337 0.0741152L2.82962 0.0731777Z" fill="#29251E"/>
<path d="M5.25 5.99996H0.75C0.551088 5.99996 0.360322 5.92094 0.21967 5.78029C0.0790176 5.63964 0 5.44887 0 5.24996V3.49965C0.00389878 3.43603 0.0319186 3.3763 0.078345 3.33263C0.124771 3.28896 0.186107 3.26465 0.249844 3.26465C0.31358 3.26465 0.374916 3.28896 0.421342 3.33263C0.467769 3.3763 0.495789 3.43603 0.499687 3.49965V5.24996C0.499687 5.31635 0.52606 5.38002 0.573002 5.42696C0.619945 5.4739 0.683613 5.50027 0.75 5.50027H5.25C5.31639 5.50027 5.38005 5.4739 5.427 5.42696C5.47394 5.38002 5.50031 5.31635 5.50031 5.24996V3.49965C5.50421 3.43603 5.53223 3.3763 5.57866 3.33263C5.62508 3.28896 5.68642 3.26465 5.75016 3.26465C5.81389 3.26465 5.87523 3.28896 5.92165 3.33263C5.96808 3.3763 5.9961 3.43603 6 3.49965V5.24996C6 5.44887 5.92098 5.63964 5.78033 5.78029C5.63968 5.92094 5.44891 5.99996 5.25 5.99996Z" fill="#29251E"/>
</svg>
