<svg width="11" height="8" viewBox="0 0 11 8" fill="none" xmlns="http://www.w3.org/2000/svg">
<rect x="4" y="1" width="7" height="1" rx="0.5" fill="#0A0C1A" fill-opacity="0.71"/>
<rect x="4" y="5" width="7" height="1" rx="0.5" fill="#0A0C1A" fill-opacity="0.71"/>
<rect x="4" y="3" width="6" height="1" rx="0.5" fill="#0A0C1A" fill-opacity="0.71"/>
<rect x="4" y="7" width="3" height="1" rx="0.5" fill="#0A0C1A" fill-opacity="0.71"/>
<path d="M2.17678 0.823223C2.07915 0.725592 1.92085 0.725592 1.82322 0.823223L0.232233 2.41421C0.134602 2.51184 0.134602 2.67014 0.232233 2.76777C0.329864 2.8654 0.488155 2.8654 0.585786 2.76777L2 1.35355L3.41421 2.76777C3.51184 2.8654 3.67014 2.8654 3.76777 2.76777C3.8654 2.67014 3.8654 2.51184 3.76777 2.41421L2.17678 0.823223ZM2.25 8L2.25 1H1.75L1.75 8H2.25Z" fill="#0A0C1A" fill-opacity="0.71"/>
</svg>
