<svg width="11" height="12" viewBox="0 0 11 12" fill="none" xmlns="http://www.w3.org/2000/svg">
<path d="M9.31192 7.84956C9.14967 7.84956 9.01765 7.70997 9.01765 7.53839V5.34043C9.01765 3.60511 7.93331 2.13256 6.44341 1.64036C6.48819 1.50848 6.51186 1.36847 6.51186 1.22601C6.51186 0.549997 5.99169 0 5.35227 0C4.71286 0 4.19269 0.549997 4.19269 1.22603C4.19269 1.3696 4.21589 1.50939 4.26039 1.64064C2.77088 2.13308 1.6869 3.60542 1.6869 5.34046V7.53842C1.6869 7.70999 1.55488 7.84958 1.39263 7.84958C0.743717 7.84958 0.21582 8.40775 0.21582 9.09382C0.21582 9.77989 0.743717 10.3381 1.39263 10.3381H4.1379C4.11139 10.4462 4.09751 10.5586 4.09751 10.6733C4.09751 11.4049 4.66041 12 5.35227 12C6.04414 12 6.60704 11.4049 6.60704 10.6733C6.60704 10.5586 6.59316 10.4462 6.56662 10.3381H9.3119C9.96081 10.3381 10.4887 9.77989 10.4887 9.09382C10.4888 8.40773 9.96083 7.84956 9.31192 7.84956ZM4.86114 1.22603C4.86114 0.939702 5.08146 0.706755 5.35227 0.706755C5.62309 0.706755 5.84341 0.939702 5.84341 1.22603C5.84341 1.31991 5.81939 1.4113 5.77471 1.49092C5.63605 1.47403 5.49514 1.46503 5.35227 1.46503C5.20956 1.46503 5.06881 1.47401 4.93028 1.49088C4.88554 1.41148 4.86114 1.32083 4.86114 1.22603ZM5.93862 10.6733C5.93862 11.0151 5.67558 11.2932 5.3523 11.2932C5.02901 11.2932 4.76598 11.0151 4.76598 10.6733C4.76598 10.5525 4.79855 10.4371 4.85905 10.338H5.84552C5.90604 10.4371 5.93862 10.5525 5.93862 10.6733ZM9.31192 9.63129H1.39263C1.11232 9.63129 0.88427 9.39016 0.88427 9.0938C0.88427 8.79743 1.11232 8.55631 1.39263 8.55631C1.92346 8.55631 2.35535 8.09968 2.35535 7.53839V5.34043C2.35535 3.59322 3.69976 2.17177 5.35227 2.17177C7.00479 2.17177 8.3492 3.59322 8.3492 5.34043V7.53839C8.3492 8.09968 8.78109 8.55631 9.31192 8.55631C9.59223 8.55631 9.82028 8.79743 9.82028 9.0938C9.8203 9.39016 9.59223 9.63129 9.31192 9.63129Z" fill="#405051"/>
</svg>
