<svg width="8" height="8" viewBox="0 0 8 8" fill="none" xmlns="http://www.w3.org/2000/svg">
<path d="M8 3.62857C8 3.51811 7.91046 3.42857 7.8 3.42857H4.57143V0.2C4.57143 0.0895431 4.48189 0 4.37143 0H3.62857C3.51811 0 3.42857 0.0895431 3.42857 0.2V3.42857H0.2C0.0895431 3.42857 0 3.51811 0 3.62857V4.37143C0 4.48189 0.0895431 4.57143 0.2 4.57143H3.42857V7.8C3.42857 7.91046 3.51811 8 3.62857 8H4.37143C4.48189 8 4.57143 7.91046 4.57143 7.8V4.57143H7.8C7.91046 4.57143 8 4.48189 8 4.37143V3.62857Z" fill="#3896C9"/>
</svg>
