<svg width="12" height="11" viewBox="0 0 12 11" fill="none" xmlns="http://www.w3.org/2000/svg">
<path d="M11.2028 10.2188L8.48617 7.57429C9.15957 6.7751 9.56545 5.75143 9.56545 4.63571C9.56545 2.07653 7.43225 0 4.80323 0C2.17191 0 0.0410156 2.07653 0.0410156 4.63571C0.0410156 7.1949 2.17191 9.27143 4.80323 9.27143C5.94939 9.27143 6.99869 8.87857 7.81969 8.22306L10.5363 10.8653C10.7208 11.0449 11.0183 11.0449 11.2028 10.8653C11.3873 10.688 11.3873 10.3961 11.2028 10.2188ZM4.80323 8.34877C2.69771 8.34877 0.98654 6.68306 0.98654 4.63571C0.98654 2.58837 2.69771 0.920408 4.80323 0.920408C6.90645 0.920408 8.61992 2.58837 8.61992 4.63571C8.61992 6.68306 6.90645 8.34877 4.80323 8.34877Z" fill="#405051"/>
</svg>
