<svg width="6" height="6" viewBox="0 0 6 6" fill="none" xmlns="http://www.w3.org/2000/svg">
<path d="M3.53517 3L5.96078 0.574553C6.01299 0.522281 6.01299 0.437583 5.96078 0.385311L5.61484 0.0391884C5.58975 0.0141584 5.55562 0 5.52016 0C5.48463 0 5.45056 0.0141584 5.42547 0.0391884L2.99993 2.4647L0.574387 0.0391884C0.524136 -0.0110612 0.435203 -0.010998 0.385079 0.0391884L0.0392047 0.385311C-0.0130682 0.437583 -0.0130682 0.522281 0.0392047 0.574553L2.46475 3L0.0392047 5.42545C-0.0130682 5.47772 -0.0130682 5.56242 0.0392047 5.61469L0.385142 5.96081C0.410235 5.98584 0.444305 6 0.479827 6C0.51535 6 0.549356 5.98584 0.57445 5.96081L2.99999 3.5353L5.42553 5.96081C5.45063 5.98584 5.48476 6 5.52022 6C5.55568 6 5.58981 5.98584 5.61491 5.96081L5.96084 5.61469C6.01305 5.56242 6.01305 5.47772 5.96084 5.42545L3.53517 3Z" fill="#0A0C1A" fill-opacity="0.6"/>
</svg>
