<svg width="20" height="20" viewBox="0 0 20 20" fill="none" xmlns="http://www.w3.org/2000/svg">
<circle cx="10" cy="10" r="10" fill="url(#paint0_linear_1840_1029)"/>
<path d="M5.34687 9.89632C5.53756 12.1856 7.64906 14.6665 9.99987 14.6665C12.3512 14.6665 14.4627 12.1856 14.6523 9.89632C14.7756 8.42225 14.0769 7.42121 12.9239 6.84436C13.3632 6.50131 13.747 6.09522 13.9192 5.90459C13.9732 5.84485 13.9483 5.78212 13.865 5.76684C13.3745 5.67688 11.8104 5.41668 11.0473 5.60287C10.656 5.69845 10.4438 5.83621 10.3409 5.99921C10.3249 5.64963 10.2647 5.16811 10.0546 4.73557C9.85422 4.32412 9.70278 4.13398 9.60559 4.04612C9.5453 3.99163 9.41341 3.99072 9.3329 4.01549L8.47299 4.28011C8.39251 4.30488 8.38809 4.35462 8.45824 4.39823C8.73295 4.56898 9.35447 5.05058 9.48197 5.97227C9.3725 5.82092 9.16246 5.69314 8.79212 5.60287C8.02905 5.41668 6.46501 5.67688 5.97449 5.76684C5.89119 5.78211 5.86636 5.84481 5.92039 5.90449C6.10057 6.10354 6.51213 6.53775 6.9758 6.88963C5.88193 7.47452 5.22802 8.46378 5.34687 9.89632ZM6.46039 8.92268C6.56923 8.65689 6.72066 8.41773 6.91798 8.21559C7.56137 8.18541 8.53078 8.1044 9.08797 7.89017C9.36871 8.19129 9.74164 8.43303 9.93613 8.54876C10.0073 8.59109 10.1228 8.58696 10.1896 8.53925C10.3461 8.42763 10.6244 8.21119 10.865 7.9309C11.4907 8.1336 12.5022 8.20076 13.0936 8.2226C13.286 8.42251 13.4293 8.65792 13.537 8.91917C13.3348 8.97475 13.1835 9.13893 13.1835 9.34085V9.78848C13.1835 10.0356 13.4052 10.2361 13.6766 10.2361C13.6832 10.2361 13.6885 10.2328 13.6946 10.2328C13.6703 10.4425 13.6296 10.6535 13.5689 10.8632C13.4788 10.7566 13.3431 10.6834 13.184 10.6834C12.9126 10.6834 12.6899 10.8838 12.6899 11.131V11.5786C12.6899 11.7828 12.8448 11.948 13.0505 12.0016C12.9117 12.2226 12.7529 12.4296 12.58 12.6255C12.4893 12.5352 12.3543 12.4735 12.199 12.4735C11.9276 12.4735 11.7027 12.6509 11.7027 12.8699V13.2659C11.7027 13.3044 11.7216 13.3396 11.7343 13.3748C11.2092 13.7251 10.6184 13.9386 9.9993 13.9386C9.53607 13.9386 9.08893 13.8191 8.67161 13.6124C8.72413 13.5415 8.76565 13.4605 8.76565 13.3688V12.9212C8.76565 12.674 8.54397 12.4735 8.27201 12.4735C8.0001 12.4735 7.77843 12.674 7.77843 12.9212V12.9961C6.97629 12.2749 6.41838 11.2374 6.30288 10.2358C6.57426 10.2351 6.79119 10.0352 6.79119 9.78848V9.34085C6.79119 9.14548 6.65215 8.9838 6.46039 8.92268Z" fill="white"/>
<path d="M7.64329 12.0265C7.91524 12.0265 8.13664 11.8263 8.13664 11.5791V11.1315C8.13664 10.8843 7.91526 10.684 7.64329 10.684C7.37187 10.684 7.14941 10.8843 7.14941 11.1315V11.5791C7.14941 11.8263 7.37186 12.0265 7.64329 12.0265Z" fill="white"/>
<path d="M8.35882 10.2363C8.63079 10.2363 8.85246 10.0359 8.85246 9.78874V9.34113C8.85246 9.09394 8.63078 8.89355 8.35882 8.89355C8.08692 8.89355 7.86523 9.09394 7.86523 9.34113V9.78876C7.86523 10.0359 8.08689 10.2363 8.35882 10.2363Z" fill="white"/>
<path d="M9.50631 12.0265C9.77771 12.0265 9.99992 11.8263 9.99992 11.5791V11.1315C9.99992 10.8843 9.77771 10.684 9.50631 10.684C9.23434 10.684 9.0127 10.8843 9.0127 11.1315V11.5791C9.0127 11.8263 9.23433 12.0265 9.50631 12.0265Z" fill="white"/>
<path d="M10.3335 10.2363C10.6049 10.2363 10.8271 10.0359 10.8271 9.78874V9.34113C10.8271 9.09394 10.6049 8.89355 10.3335 8.89355C10.0615 8.89355 9.83984 9.09394 9.83984 9.34113V9.78876C9.83984 10.0359 10.0615 10.2363 10.3335 10.2363Z" fill="white"/>
<path d="M10.8262 11.579C10.8262 11.8262 11.0481 12.0264 11.3195 12.0264C11.5909 12.0264 11.8134 11.8262 11.8134 11.579V11.1314C11.8134 10.8842 11.5909 10.6838 11.3195 10.6838C11.0481 10.6838 10.8262 10.8842 10.8262 11.1314V11.579Z" fill="white"/>
<path d="M12.2045 10.2363C12.4759 10.2363 12.6917 10.0359 12.6917 9.78874V9.34113C12.6917 9.09394 12.476 8.89355 12.2045 8.89355C11.9331 8.89355 11.7168 9.09394 11.7168 9.34113V9.78876C11.7168 10.0359 11.9331 10.2363 12.2045 10.2363Z" fill="white"/>
<path d="M10.1479 12.3577C9.87595 12.3577 9.6543 12.5581 9.6543 12.8053V13.2529C9.6543 13.4998 9.87597 13.7002 10.1479 13.7002C10.4193 13.7002 10.6415 13.4998 10.6415 13.2529V12.8053C10.6415 12.5581 10.4193 12.3577 10.1479 12.3577Z" fill="white"/>
<defs>
<linearGradient id="paint0_linear_1840_1029" x1="20" y1="10.1538" x2="-9.84615" y2="10.1538" gradientUnits="userSpaceOnUse">
<stop stop-color="#3896C9"/>
<stop offset="1" stop-color="#3896C9" stop-opacity="0"/>
</linearGradient>
</defs>
</svg>
