<svg width="11" height="11" viewBox="0 0 11 11" fill="none" xmlns="http://www.w3.org/2000/svg">
<path d="M0.744902 5.89632C0.943408 8.18562 3.14154 10.6665 5.58879 10.6665C8.03663 10.6665 10.2348 8.18562 10.4321 5.89632C10.5604 4.42225 9.8331 3.42121 8.63279 2.84436C9.09006 2.50131 9.48968 2.09522 9.66893 1.90459C9.7251 1.84485 9.69917 1.78212 9.61246 1.76684C9.10182 1.67688 7.47361 1.41668 6.67924 1.60287C6.27184 1.69845 6.05089 1.83621 5.94382 1.99921C5.92716 1.64963 5.86444 1.16811 5.6458 0.735568C5.43717 0.324116 5.27951 0.13398 5.17833 0.0461207C5.11558 -0.00836904 4.97827 -0.00927852 4.89446 0.0154906L3.99927 0.280113C3.91548 0.304882 3.91089 0.354623 3.98392 0.398232C4.2699 0.568977 4.91692 1.05058 5.04965 1.97227C4.93569 1.82092 4.71702 1.69314 4.3315 1.60287C3.53711 1.41668 1.90891 1.67688 1.39827 1.76684C1.31155 1.78211 1.28571 1.84481 1.34195 1.90449C1.52952 2.10354 1.95797 2.53775 2.44066 2.88963C1.30191 3.47452 0.621176 4.46378 0.744902 5.89632ZM1.9041 4.92268C2.01741 4.65689 2.17505 4.41773 2.38047 4.21559C3.05025 4.18541 4.05943 4.1044 4.63948 3.89017C4.93174 4.19129 5.31997 4.43303 5.52244 4.54876C5.59648 4.59109 5.71675 4.58696 5.78634 4.53925C5.94919 4.42763 6.23896 4.21119 6.48942 3.9309C7.14082 4.1336 8.19379 4.20076 8.80949 4.2226C9.00978 4.42251 9.15889 4.65792 9.27108 4.91917C9.0605 4.97475 8.90302 5.13893 8.90302 5.34085V5.78848C8.90302 6.03562 9.13378 6.23607 9.41631 6.23607C9.42321 6.23607 9.42878 6.23282 9.43513 6.23282C9.4098 6.44253 9.36749 6.65352 9.30423 6.86322C9.21041 6.75657 9.0692 6.68344 8.90353 6.68344C8.62099 6.68344 8.38918 6.88382 8.38918 7.13102V7.57859C8.38918 7.7828 8.55048 7.948 8.76454 8.00157C8.62013 8.2226 8.4548 8.42957 8.27473 8.62546C8.18033 8.53519 8.03983 8.47354 7.87814 8.47354C7.59562 8.47354 7.36145 8.65085 7.36145 8.86989V9.26591C7.36145 9.30438 7.38117 9.3396 7.39442 9.37478C6.84771 9.72507 6.23265 9.93859 5.5882 9.93859C5.10597 9.93859 4.64048 9.81911 4.20604 9.61244C4.26071 9.54153 4.30394 9.46052 4.30394 9.36875V8.92117C4.30394 8.67397 4.07316 8.47354 3.79005 8.47354C3.50698 8.47354 3.27621 8.67398 3.27621 8.92117V8.9961C2.44117 8.2749 1.86037 7.23735 1.74013 6.23579C2.02264 6.23509 2.24847 6.03516 2.24847 5.78848V5.34085C2.24847 5.14548 2.10373 4.9838 1.9041 4.92268Z" fill="white"/>
</svg>
