<svg width="14" height="14" viewBox="0 0 14 14" fill="none" xmlns="http://www.w3.org/2000/svg">
<path d="M12.8184 1.1375C12.6871 1.05 12.5121 1.00625 12.3809 1.05L1.31211 5.11875C1.13711 5.1625 1.00586 5.3375 1.00586 5.5125C1.00586 5.6875 1.13711 5.8625 1.31211 5.90625L5.77461 7.56875L10.1496 3.19375C10.3246 3.01875 10.5871 3.01875 10.7621 3.19375C10.9371 3.36875 10.9371 3.63125 10.7621 3.80625L6.47461 8.09375L9.36211 12.7312C9.44961 12.8625 9.58086 12.95 9.71211 12.95C9.75586 12.95 9.75586 12.95 9.79961 12.95C9.97461 12.9062 10.1059 12.775 10.1496 12.6437L12.8621 1.61875C12.9934 1.44375 12.9496 1.26875 12.8184 1.1375Z" fill="black" fill-opacity="0.6"/>
</svg>
