<svg width="22" height="24" viewBox="0 0 22 24" fill="none" xmlns="http://www.w3.org/2000/svg">
<g clip-path="url(#clip0_3038_4567)">
<path d="M10.5544 0.939855L4.2303 7.54774C4.07676 7.72687 3.99446 7.96081 4.00029 8.20155C4.00612 8.44229 4.09965 8.67155 4.26166 8.84228C4.42368 9.01301 4.6419 9.11226 4.87152 9.11965C5.10115 9.12704 5.32477 9.04202 5.49647 8.88202L10.2514 3.91552V18.4373C10.2439 18.5657 10.2615 18.6944 10.3032 18.8153C10.3449 18.9363 10.4098 19.047 10.4939 19.1407C10.5779 19.2344 10.6794 19.3091 10.792 19.3601C10.9047 19.4111 11.0261 19.4375 11.1488 19.4375C11.2715 19.4375 11.3929 19.4111 11.5055 19.3601C11.6182 19.3091 11.7197 19.2344 11.8037 19.1407C11.8878 19.047 11.9527 18.9363 11.9944 18.8153C12.0361 18.6944 12.0537 18.5657 12.0462 18.4373V3.84139L16.7978 8.87849C16.9663 9.0546 17.1946 9.15349 17.4325 9.15349C17.6705 9.15349 17.8988 9.0546 18.0673 8.87849C18.152 8.7916 18.2191 8.68778 18.2648 8.57319C18.3105 8.45859 18.3338 8.33555 18.3333 8.21135C18.3333 7.96305 18.2402 7.7247 18.074 7.54774L11.8408 0.943385C11.7573 0.855654 11.6581 0.786051 11.5489 0.738561C11.4397 0.691071 11.3226 0.666626 11.2044 0.666626C11.0861 0.666626 10.969 0.691071 10.8598 0.738561C10.7506 0.786051 10.6514 0.855654 10.5679 0.943385L10.5544 0.939855Z" fill="#405051" fill-opacity="0.35"/>
<path d="M18.9997 23.3333H2.99967C2.29243 23.3333 1.61415 23.0366 1.11406 22.5085C0.613959 21.9804 0.333008 21.2641 0.333008 20.5172V13.9449C0.34687 13.706 0.446496 13.4817 0.611568 13.3178C0.77664 13.1538 0.994723 13.0625 1.22134 13.0625C1.44796 13.0625 1.66604 13.1538 1.83111 13.3178C1.99619 13.4817 2.09581 13.706 2.10967 13.9449V20.5172C2.10967 20.7664 2.20344 21.0055 2.37035 21.1818C2.53726 21.358 2.76363 21.4571 2.99967 21.4571H18.9997C19.2357 21.4571 19.4621 21.358 19.629 21.1818C19.7959 21.0055 19.8897 20.7664 19.8897 20.5172V13.9449C19.9035 13.706 20.0032 13.4817 20.1682 13.3178C20.3333 13.1538 20.5514 13.0625 20.778 13.0625C21.0046 13.0625 21.2227 13.1538 21.3878 13.3178C21.5529 13.4817 21.6525 13.706 21.6663 13.9449V20.5172C21.6663 21.2641 21.3854 21.9804 20.8853 22.5085C20.3852 23.0366 19.7069 23.3333 18.9997 23.3333Z" fill="#405051" fill-opacity="0.35"/>
</g>
<defs>
<clipPath id="clip0_3038_4567">
<rect width="21.3333" height="22.6667" fill="white" transform="translate(0.333008 0.666626)"/>
</clipPath>
</defs>
</svg>
