<svg width="10" height="11" viewBox="0 0 10 11" fill="none" xmlns="http://www.w3.org/2000/svg">
<path d="M0.346872 5.89632C0.537555 8.18562 2.64906 10.6665 4.99987 10.6665C7.35124 10.6665 9.46274 8.18562 9.65232 5.89632C9.77559 4.42225 9.07691 3.42121 7.9239 2.84436C8.36316 2.50131 8.74703 2.09522 8.91921 1.90459C8.97317 1.84485 8.94826 1.78212 8.86497 1.76684C8.37445 1.67688 6.81041 1.41668 6.04735 1.60287C5.656 1.69845 5.44375 1.83621 5.34091 1.99921C5.3249 1.64963 5.26466 1.16811 5.05463 0.735568C4.85422 0.324116 4.70278 0.13398 4.60559 0.0461207C4.5453 -0.00836904 4.41341 -0.00927852 4.3329 0.0154906L3.47299 0.280113C3.39251 0.304882 3.38809 0.354623 3.45824 0.398232C3.73295 0.568977 4.35447 1.05058 4.48197 1.97227C4.3725 1.82092 4.16246 1.69314 3.79212 1.60287C3.02905 1.41668 1.46501 1.67688 0.97449 1.76684C0.891193 1.78211 0.866364 1.84481 0.92039 1.90449C1.10057 2.10354 1.51213 2.53775 1.9758 2.88963C0.881925 3.47452 0.228023 4.46378 0.346872 5.89632ZM1.46039 4.92268C1.56923 4.65689 1.72066 4.41773 1.91798 4.21559C2.56137 4.18541 3.53078 4.1044 4.08797 3.89017C4.36871 4.19129 4.74164 4.43303 4.93613 4.54876C5.00725 4.59109 5.12278 4.58696 5.18963 4.53925C5.34607 4.42763 5.62442 4.21119 5.865 3.9309C6.49073 4.1336 7.50221 4.20076 8.09365 4.2226C8.28604 4.42251 8.42928 4.65792 8.53705 4.91917C8.33476 4.97475 8.18348 5.13893 8.18348 5.34085V5.78848C8.18348 6.03562 8.40515 6.23607 8.67655 6.23607C8.68318 6.23607 8.68852 6.23282 8.69463 6.23282C8.6703 6.44253 8.62965 6.65352 8.56888 6.86322C8.47876 6.75657 8.34312 6.68344 8.18398 6.68344C7.91258 6.68344 7.68989 6.88382 7.68989 7.13102V7.57859C7.68989 7.7828 7.84484 7.948 8.05047 8.00157C7.91175 8.2226 7.75293 8.42957 7.57995 8.62546C7.48928 8.53519 7.35431 8.47354 7.199 8.47354C6.92761 8.47354 6.70267 8.65085 6.70267 8.86989V9.26591C6.70267 9.30438 6.72161 9.3396 6.73434 9.37478C6.20918 9.72507 5.61836 9.93859 4.9993 9.93859C4.53607 9.93859 4.08893 9.81911 3.67161 9.61244C3.72413 9.54153 3.76565 9.46052 3.76565 9.36875V8.92117C3.76565 8.67397 3.54397 8.47354 3.27201 8.47354C3.0001 8.47354 2.77843 8.67398 2.77843 8.92117V8.9961C1.97629 8.2749 1.41838 7.23735 1.30288 6.23579C1.57426 6.23509 1.79119 6.03516 1.79119 5.78848V5.34085C1.79119 5.14548 1.65215 4.9838 1.46039 4.92268Z" fill="white"/>
<path d="M2.64329 8.0265C2.91524 8.0265 3.13664 7.82632 3.13664 7.57912V7.13154C3.13664 6.88434 2.91526 6.68396 2.64329 6.68396C2.37187 6.68396 2.14941 6.88435 2.14941 7.13154V7.57912C2.14941 7.82632 2.37186 8.0265 2.64329 8.0265Z" fill="white"/>
<path d="M3.35882 6.23633C3.63079 6.23633 3.85246 6.03589 3.85246 5.78874V5.34113C3.85246 5.09394 3.63078 4.89355 3.35882 4.89355C3.08692 4.89355 2.86523 5.09394 2.86523 5.34113V5.78876C2.86523 6.0359 3.08689 6.23633 3.35882 6.23633Z" fill="white"/>
<path d="M4.50631 8.0265C4.77771 8.0265 4.99992 7.82632 4.99992 7.57912V7.13154C4.99992 6.88434 4.77771 6.68396 4.50631 6.68396C4.23434 6.68396 4.0127 6.88435 4.0127 7.13154V7.57912C4.0127 7.82632 4.23433 8.0265 4.50631 8.0265Z" fill="white"/>
<path d="M5.33348 6.23633C5.60488 6.23633 5.82707 6.03589 5.82707 5.78874V5.34113C5.82707 5.09394 5.60488 4.89355 5.33348 4.89355C5.06151 4.89355 4.83984 5.09394 4.83984 5.34113V5.78876C4.83984 6.0359 5.06151 6.23633 5.33348 6.23633Z" fill="white"/>
<path d="M5.82617 7.57899C5.82617 7.8262 6.04813 8.02638 6.31953 8.02638C6.59093 8.02638 6.8134 7.8262 6.8134 7.57899V7.13142C6.8134 6.88421 6.59094 6.68384 6.31953 6.68384C6.04813 6.68384 5.82617 6.88424 5.82617 7.13143V7.57899Z" fill="white"/>
<path d="M7.20455 6.23633C7.47594 6.23633 7.69168 6.03589 7.69168 5.78874V5.34113C7.69168 5.09394 7.47596 4.89355 7.20455 4.89355C6.93314 4.89355 6.7168 5.09394 6.7168 5.34113V5.78876C6.7168 6.0359 6.93315 6.23633 7.20455 6.23633Z" fill="white"/>
<path d="M5.14794 8.35767C4.87595 8.35767 4.6543 8.5581 4.6543 8.80529V9.25288C4.6543 9.49979 4.87597 9.70025 5.14794 9.70025C5.41934 9.70025 5.64152 9.49979 5.64152 9.25288V8.80529C5.64152 8.55811 5.41934 8.35767 5.14794 8.35767Z" fill="white"/>
</svg>
