<svg width="20" height="20" viewBox="0 0 38 38" fill="none" xmlns="http://www.w3.org/2000/svg">
<circle cx="19" cy="19" r="19" fill="url(#paint0_linear_3627_3894)"/>
<path d="M28.3453 13.1343L26.4309 11.0281C26.2244 10.8009 25.8896 10.8009 25.6831 11.0281L15.8316 21.866L12.3171 17.9998C12.1106 17.7726 11.7759 17.7726 11.5694 17.9998L9.65495 20.106C9.55579 20.2151 9.5 20.3632 9.5 20.5173C9.5 20.6715 9.55579 20.8196 9.65495 20.9287L15.4577 27.3122C15.5611 27.4259 15.6962 27.4827 15.8316 27.4827C15.9672 27.4827 16.1018 27.4259 16.2055 27.3122L28.3451 13.957C28.4442 13.8479 28.5 13.6998 28.5 13.5456C28.5 13.3914 28.4445 13.2434 28.3453 13.1343Z" fill="white"/>
<defs>
<linearGradient id="paint0_linear_3627_3894" x1="38" y1="19" x2="-19.7037" y2="19" gradientUnits="userSpaceOnUse">
<stop stop-color="#5DCD32"/>
<stop offset="1" stop-color="#5DCD32" stop-opacity="0"/>
</linearGradient>
</defs>
</svg>
