<svg width="20" height="20" viewBox="0 0 20 20" fill="none" xmlns="http://www.w3.org/2000/svg">
<path d="M6.98587 20V14.6423C6.98587 13.9465 7.65639 13.3825 8.48351 13.3825H11.5071C11.9043 13.3825 12.2852 13.5152 12.5661 13.7515C12.8469 13.9877 13.0047 14.3082 13.0047 14.6423V17.3679C13.0047 20 13.0047 20 13.3312 20C13.6578 20 13.7645 20 14.5973 20H16.6625C20.2983 19.8893 19.9937 20 19.9937 16.2113C19.9937 16.2113 19.9937 18.4613 19.9937 15.4108V7.6461C19.9937 6.99148 19.6488 6.37053 19.0518 5.95054L11.5071 0.633783C10.2864 -0.192796 9.66774 -0.229518 8.48351 0.633758L1.02354 5.95054C0.398383 6.35815 0.0247352 6.98094 0.00627065 7.6461V15.9654C0.00609969 19.2307 -0.298453 20 3.33734 20H5.83595C7.16405 20 6.98587 20 6.98587 20Z" fill="white"/>
<path d="M19.7437 16.2113H19.9937V15.4108V7.6461C19.9937 6.99148 19.6488 6.37053 19.0518 5.95054L19.7437 16.2113ZM19.7437 16.2113V16.208V16.1961V16.1842V16.1721V16.1599V16.1476V16.1352V16.1228V16.1102V16.0975V16.0846V16.0717V16.0587V16.0456V16.0323V16.019V16.0055V15.992V15.9783V15.9645V15.9506V15.9366V15.9225V15.9083V15.894V15.8795V15.865V15.8503V15.8355V15.8207V15.8057V15.7905V15.7753V15.76V15.7445V15.7289V15.7132V15.6974V15.6815V15.6655V15.6493V15.6331V15.6167V15.6002V15.5836V15.5668V15.55V15.533V15.5159V15.4987V15.4814V15.4639V15.4464V15.4287V15.4108V7.6461C19.7437 7.08316 19.4473 6.53444 18.908 6.155L18.9078 6.15489L11.365 0.839494M19.7437 16.2113L19.7471 17.0105C19.7472 17.0187 19.7472 17.0269 19.7473 17.035C19.751 17.5835 19.754 18.0187 19.7349 18.3726C19.7068 18.8937 19.6318 19.1641 19.4985 19.3261C19.3723 19.4794 19.152 19.5839 18.6838 19.6463C18.2652 19.7021 17.7028 19.7189 16.9286 19.7419C16.8413 19.7445 16.7514 19.7472 16.6587 19.75H14.5973H14.5925H14.5876H14.5828H14.5779H14.5731H14.5683H14.5636H14.5588H14.5541H14.5493H14.5446H14.54H14.5353H14.5306H14.526H14.5213H14.5167H14.5121H14.5076H14.503H14.4984H14.4939H14.4894H14.4849H14.4804H14.4759H14.4715H14.4671H14.4626H14.4582H14.4538H14.4494H14.4451H14.4407H14.4364H14.4321H14.4278H14.4235H14.4192H14.415H14.4107H14.4065H14.4023H14.3981H14.3939H14.3898H14.3856H14.3815H14.3773H14.3732H14.3691H14.3651H14.361H14.3569H14.3529H14.3489H14.3449H14.3409H14.3369H14.3329H14.329H14.325H14.3211H14.3172H14.3133H14.3094H14.3056H14.3017H14.2979H14.294H14.2902H14.2864H14.2826H14.2789H14.2751H14.2714H14.2676H14.2639H14.2602H14.2565H14.2528H14.2492H14.2455H14.2419H14.2383H14.2346H14.231H14.2274H14.2239H14.2203H14.2168H14.2132H14.2097H14.2062H14.2027H14.1992H14.1957H14.1923H14.1888H14.1854H14.182H14.1786H14.1752H14.1718H14.1684H14.165H14.1617H14.1584H14.155H14.1517H14.1484H14.1451H14.1418H14.1386H14.1353H14.1321H14.1289H14.1256H14.1224H14.1192H14.116H14.1129H14.1097H14.1066H14.1034H14.1003H14.0972H14.0941H14.091H14.0879H14.0848H14.0818H14.0787H14.0757H14.0727H14.0696H14.0666H14.0636H14.0607H14.0577H14.0547H14.0518H14.0488H14.0459H14.043H14.0401H14.0372H14.0343H14.0314H14.0285H14.0257H14.0228H14.02H14.0172H14.0143H14.0115H14.0087H14.006H14.0032H14.0004H13.9977H13.9949H13.9922H13.9894H13.9867H13.984H13.9813H13.9786H13.976H13.9733H13.9706H13.968H13.9653H13.9627H13.9601H13.9575H13.9548H13.9523H13.9497H13.9471H13.9445H13.942H13.9394H13.9369H13.9343H13.9318H13.9293H13.9268H13.9243H13.9218H13.9193H13.9168H13.9144H13.9119H13.9095H13.907H13.9046H13.9022H13.8998H13.8974H13.895H13.8926H13.8902H13.8878H13.8855H13.8831H13.8808H13.8784H13.8761H13.8737H13.8714H13.8691H13.8668H13.8645H13.8622H13.86H13.8577H13.8554H13.8532H13.8509H13.8487H13.8464H13.8442H13.842H13.8398H13.8376H13.8354H13.8332H13.831H13.8288H13.8266H13.8245H13.8223H13.8201H13.818H13.8159H13.8137H13.8116H13.8095H13.8074H13.8053H13.8032H13.8011H13.799H13.7969H13.7948H13.7928H13.7907H13.7887H13.7866H13.7846H13.7825H13.7805H13.7785H13.7764H13.7744H13.7724H13.7704H13.7684H13.7664H13.7644H13.7625H13.7605H13.7585H13.7566H13.7546H13.7526H13.7507H13.7488H13.7468H13.7449H13.743H13.741H13.7391H13.7372H13.7353H13.7334H13.7315H13.7296H13.7277H13.7259H13.724H13.7221H13.7202H13.7184H13.7165H13.7147H13.7128H13.711H13.7091H13.7073H13.7055H13.7036H13.7018H13.7H13.6982H13.6964H13.6946H13.6928H13.691H13.6892H13.6874H13.6856H13.6838H13.682H13.6802H13.6785H13.6767H13.6749H13.6732H13.6714H13.6697H13.6679H13.6662H13.6644H13.6627H13.6609H13.6592H13.6575H13.6557H13.654H13.6523H13.6506H13.6489H13.6472H13.6454H13.6437H13.642H13.6403H13.6386H13.6369H13.6352H13.6335H13.6319H13.6302H13.6285H13.6268H13.6251H13.6234H13.6218H13.6201H13.6184H13.6168H13.6151H13.6134H13.6118H13.6101H13.6085H13.6068H13.6051H13.6035H13.6018H13.6002H13.5985H13.5969H13.5953H13.5936H13.592H13.5903H13.5887H13.5871H13.5854H13.5838H13.5822H13.5805H13.5789H13.5773H13.5756H13.574H13.5724H13.5708H13.5691H13.5675H13.5659H13.5643H13.5627H13.561H13.5594H13.5578H13.5562H13.5546H13.5529H13.5513H13.5497H13.5481H13.5465H13.5449H13.5433H13.5416H13.54H13.5384H13.5368H13.5352H13.5336H13.532H13.5303H13.5287H13.5271H13.5255H13.5239H13.5223H13.5206H13.519H13.5174H13.5158H13.5142H13.5126H13.5109H13.5093H13.5077H13.5061H13.5045H13.5028H13.5012H13.4996H13.498H13.4963H13.4947H13.4931H13.4915H13.4898H13.4882H13.4866H13.4849H13.4833H13.4817H13.48H13.4784H13.4767H13.4751H13.4735H13.4718H13.4702H13.4685H13.4669H13.4652H13.4636H13.4619H13.4602H13.4586H13.4569H13.4553H13.4536H13.4519H13.4503H13.4486H13.4469H13.4452H13.4436H13.4419H13.4402H13.4385H13.4368H13.4351H13.4334H13.4317H13.43H13.4283H13.4266H13.4249H13.4232H13.4215H13.4198H13.4181H13.4163H13.4146H13.4129H13.4112H13.4094H13.4077H13.4059H13.4042H13.4025H13.4007H13.3989H13.3972H13.3954H13.3937H13.3919H13.3901H13.3883H13.3866H13.3848H13.383H13.3812H13.3794H13.3776H13.3758H13.374H13.3722H13.3704H13.3686H13.3667H13.3649H13.3631H13.3612H13.3594H13.3576H13.3557H13.3539H13.352H13.3501H13.3483H13.3464H13.3445H13.3426H13.3407H13.3389H13.337H13.3351H13.3332H13.3312C13.3243 19.75 13.318 19.75 13.3123 19.7499C13.3063 19.7251 13.2998 19.6898 13.2936 19.6402C13.2553 19.3311 13.2547 18.6959 13.2547 17.3679V14.6423C13.2547 14.2265 13.058 13.8386 12.727 13.5602C12.3972 13.2828 11.9579 13.1325 11.5071 13.1325H8.48351C7.56057 13.1325 6.73587 13.7697 6.73587 14.6423V19.75L5.83595 19.75H3.33734C2.43171 19.75 1.79543 19.7015 1.34478 19.5865C0.902191 19.4736 0.664491 19.3035 0.519839 19.0739C0.3666 18.8307 0.292845 18.4833 0.265043 17.9601C0.245803 17.5981 0.248993 17.1775 0.252781 16.678C0.25446 16.4566 0.256257 16.2197 0.256271 15.9654V7.6497M11.365 0.839494C11.3656 0.839925 11.3663 0.840357 11.3669 0.840788L11.5071 0.633783L11.3631 0.838139L11.365 0.839494ZM11.365 0.839494C10.7622 0.4315 10.3555 0.25386 9.9791 0.250062C9.60669 0.246305 9.21101 0.412808 8.63078 0.835778L8.62862 0.837355L8.62861 0.837343L1.16864 6.15412L1.1602 6.16014L1.16008 6.15996C0.595019 6.52839 0.273312 7.0787 0.256271 7.6497M0.256271 7.6497V7.6461H0.00627065L0.256174 7.65304C0.256205 7.65193 0.256237 7.65081 0.256271 7.6497Z" stroke="black" stroke-opacity="0.4" stroke-width="0.5"/>
</svg>
