<svg width="20" height="14" viewBox="0 0 20 14" fill="none" xmlns="http://www.w3.org/2000/svg">
<ellipse cx="14.7825" cy="3" rx="2.6087" ry="3" fill="white"/>
<ellipse cx="14.7826" cy="10" rx="5.21739" ry="3" fill="white"/>
<path d="M17.1412 3C17.1412 4.55273 16.0535 5.75 14.7825 5.75C13.5115 5.75 12.4238 4.55273 12.4238 3C12.4238 1.44726 13.5115 0.25 14.7825 0.25C16.0535 0.25 17.1412 1.44726 17.1412 3Z" stroke="black" stroke-opacity="0.4" stroke-width="0.5"/>
<path d="M19.75 10C19.75 10.7008 19.2538 11.3833 18.3472 11.9046C17.4474 12.422 16.1876 12.75 14.7826 12.75C13.3775 12.75 12.1178 12.422 11.2179 11.9046C10.3113 11.3833 9.81519 10.7008 9.81519 10C9.81519 9.29922 10.3113 8.61672 11.2179 8.09541C12.1178 7.578 13.3775 7.25 14.7826 7.25C16.1876 7.25 17.4474 7.578 18.3472 8.09541C19.2538 8.61672 19.75 9.29922 19.75 10Z" stroke="black" stroke-opacity="0.4" stroke-width="0.5"/>
<ellipse cx="5.21734" cy="3" rx="2.6087" ry="3" fill="white"/>
<ellipse cx="5.21739" cy="10" rx="5.21739" ry="3" fill="white"/>
<path d="M7.57603 3C7.57603 4.55273 6.48834 5.75 5.21734 5.75C3.94633 5.75 2.85864 4.55273 2.85864 3C2.85864 1.44726 3.94633 0.25 5.21734 0.25C6.48834 0.25 7.57603 1.44726 7.57603 3Z" stroke="black" stroke-opacity="0.4" stroke-width="0.5"/>
<path d="M10.1848 10C10.1848 10.7008 9.68865 11.3833 8.78203 11.9046C7.88218 12.422 6.62243 12.75 5.21739 12.75C3.81235 12.75 2.5526 12.422 1.65276 11.9046C0.746129 11.3833 0.25 10.7008 0.25 10C0.25 9.29922 0.746129 8.61672 1.65276 8.09541C2.5526 7.578 3.81235 7.25 5.21739 7.25C6.62243 7.25 7.88218 7.578 8.78203 8.09541C9.68865 8.61672 10.1848 9.29922 10.1848 10Z" stroke="black" stroke-opacity="0.4" stroke-width="0.5"/>
<ellipse cx="10.4346" cy="4" rx="2.6087" ry="3" fill="white"/>
<ellipse cx="10.4344" cy="11" rx="5.21739" ry="3" fill="white"/>
<path d="M12.7933 4C12.7933 5.55273 11.7056 6.75 10.4346 6.75C9.16362 6.75 8.07593 5.55273 8.07593 4C8.07593 2.44726 9.16362 1.25 10.4346 1.25C11.7056 1.25 12.7933 2.44726 12.7933 4Z" stroke="black" stroke-opacity="0.4" stroke-width="0.5"/>
<path d="M15.4018 11C15.4018 11.7008 14.9057 12.3833 13.9991 12.9046C13.0992 13.422 11.8395 13.75 10.4344 13.75C9.02939 13.75 7.76964 13.422 6.8698 12.9046C5.96317 12.3833 5.46704 11.7008 5.46704 11C5.46704 10.2992 5.96317 9.61672 6.8698 9.09541C7.76964 8.578 9.02939 8.25 10.4344 8.25C11.8395 8.25 13.0992 8.578 13.9991 9.09541C14.9057 9.61672 15.4018 10.2992 15.4018 11Z" stroke="black" stroke-opacity="0.4" stroke-width="0.5"/>
</svg>
