<svg width="17" height="19" viewBox="0 0 17 19" fill="none" xmlns="http://www.w3.org/2000/svg">
<path fill-rule="evenodd" clip-rule="evenodd" d="M2.69969 0.0491508C2.16651 0.197498 1.73395 0.634502 1.5918 1.16841C1.55162 1.31937 1.54206 1.94266 1.54173 4.44251L1.5413 7.53021L1.63017 7.61905C1.73957 7.72848 1.93124 7.73739 2.05313 7.63874L2.1386 7.56953L2.1567 4.426C2.17476 1.28936 2.17498 1.28212 2.25306 1.13764C2.34533 0.966962 2.52282 0.792334 2.69969 0.69825C2.82169 0.633344 3.06329 0.630484 9.19608 0.621398C16.2558 0.610936 15.7511 0.594212 16.0479 0.848263C16.1279 0.916753 16.232 1.05058 16.2792 1.14572L16.3651 1.31864L16.3748 7.44547L16.3845 13.5723L15.325 13.573C14.7423 13.5734 14.1515 13.5901 14.0121 13.6102C13.3502 13.7055 12.8326 14.1857 12.6954 14.832C12.6701 14.9509 12.6547 15.4566 12.6547 16.1624V17.3009H11.5126H10.3706L10.2818 17.3967C10.1598 17.5284 10.1659 17.6775 10.2989 17.8105L10.4047 17.9163H11.7125C12.7791 17.9163 13.0383 17.9067 13.118 17.8643C13.2695 17.7838 16.918 14.1103 16.9608 13.9953C17.0133 13.8539 17.013 1.62754 16.9604 1.30366C16.8607 0.6892 16.4241 0.209987 15.8209 0.0528432C15.6331 0.0039372 14.8508 -0.00225298 9.23522 0.000570609C4.25032 0.0031046 2.82712 0.0137112 2.69969 0.0491508ZM3.56849 1.89038C3.37707 1.98722 3.3442 2.23725 3.50337 2.38553C3.57331 2.45072 3.63021 2.45894 4.01136 2.45894C4.41879 2.45894 4.44507 2.45441 4.52942 2.37007C4.67881 2.22071 4.63993 1.98751 4.44873 1.88564C4.34092 1.82823 3.68437 1.83178 3.56849 1.89038ZM5.42214 1.88148C5.32545 1.92025 5.22391 2.13567 5.25754 2.23066C5.27025 2.26661 5.31365 2.33271 5.35398 2.37749L5.42732 2.45894H10.1764H14.9255L15.0209 2.3839C15.1165 2.30864 15.1476 2.14842 15.0938 2.00807C15.0288 1.83869 15.1714 1.8434 10.1858 1.84582C7.42388 1.8472 5.47112 1.86179 5.42214 1.88148ZM3.57725 3.74219C3.37783 3.83164 3.33812 4.07476 3.497 4.23364C3.56045 4.2971 3.61866 4.30513 4.01469 4.30513C4.43428 4.30513 4.46556 4.30014 4.53959 4.22137C4.6517 4.10198 4.64507 3.90853 4.52496 3.79558C4.44055 3.7162 4.39656 3.70697 4.06342 3.69857C3.80133 3.69198 3.6612 3.70454 3.57725 3.74219ZM5.42858 3.74164C5.3572 3.77274 5.30131 3.83236 5.27629 3.90415C5.23126 4.03331 5.24929 4.10734 5.35398 4.22368L5.42732 4.30513H9.09766C11.3781 4.30513 12.7926 4.29195 12.8331 4.27031C12.9445 4.21065 12.997 4.03425 12.9424 3.90248C12.8508 3.68137 13.0006 3.68959 9.09918 3.69115C6.18643 3.6923 5.52093 3.70146 5.42858 3.74164ZM3.497 5.64362C3.34047 5.80015 3.37576 6.03357 3.57128 6.13467C3.66102 6.18108 3.76629 6.19122 4.05871 6.18166C4.39461 6.17065 4.44091 6.1607 4.52496 6.08168C4.64073 5.97279 4.64833 5.80105 4.54324 5.66751C4.4694 5.57361 4.46125 5.57213 4.01835 5.57213C3.6187 5.57213 3.56053 5.58009 3.497 5.64362ZM5.35398 5.65358C5.24972 5.76938 5.23122 5.84391 5.27535 5.9704C5.34652 6.17456 5.41852 6.18752 6.48258 6.18752C7.53042 6.18752 7.60351 6.17536 7.68934 5.98698C7.7411 5.87335 7.7167 5.76753 7.61241 5.65358C7.53835 5.57267 7.53071 5.57213 6.48258 5.57213C5.43409 5.57213 5.42685 5.57263 5.35398 5.65358ZM15.2221 6.28096L15.1343 6.37435V8.65516V10.936L15.2359 11.0234C15.2926 11.0721 15.3837 11.1107 15.442 11.1107C15.5004 11.1107 15.5915 11.0721 15.6482 11.0234L15.7497 10.936V8.65516V6.37435L15.662 6.28096C15.5987 6.21359 15.5373 6.18752 15.442 6.18752C15.3468 6.18752 15.2854 6.21359 15.2221 6.28096ZM4.74499 7.47095C3.49815 7.66679 2.42591 8.22464 1.55158 9.13242C-0.547361 11.3116 -0.512464 14.7534 1.63017 16.8846C2.09132 17.3433 2.4687 17.6231 2.99646 17.8975C6.36479 19.649 10.4423 17.5871 11.0475 13.8264C11.1723 13.0508 11.0904 12.006 10.8462 11.2598C10.1787 9.2198 8.3649 7.71458 6.26538 7.45828C5.84485 7.40695 5.11372 7.41303 4.74499 7.47095ZM6.28348 8.08639C6.77797 8.16147 7.2203 8.29888 7.68633 8.52216C8.24016 8.78751 8.58427 9.03186 9.03767 9.48171C9.68753 10.1265 10.1345 10.9114 10.3584 11.8007C10.4859 12.3073 10.5202 13.1955 10.4334 13.7436C10.1464 15.5557 8.86739 17.0708 7.14037 17.6443C6.51125 17.8532 6.26306 17.8921 5.55948 17.8923C4.88772 17.8925 4.52522 17.8388 4.00289 17.6617C2.51982 17.1588 1.3649 16.0045 0.870117 14.5306C0.486254 13.3871 0.555432 12.0362 1.0539 10.9424C1.96969 8.93285 4.12101 7.75795 6.28348 8.08639ZM5.35336 8.7365L5.25178 8.82385V10.9633V13.1028L6.26668 14.1158C7.16683 15.0143 7.29454 15.1289 7.39594 15.1289C7.56908 15.1289 7.70251 14.9961 7.70251 14.8238C7.70251 14.6895 7.66697 14.6486 6.7758 13.7569L5.84908 12.8297V10.8282V8.82682L5.76021 8.73798C5.64517 8.62291 5.48607 8.62233 5.35336 8.7365ZM15.2911 11.7815C15.1517 11.8572 15.1054 12.037 15.1228 12.4349C15.1357 12.7303 15.1486 12.7852 15.2237 12.8652C15.2854 12.9309 15.3474 12.9569 15.442 12.9569C15.5367 12.9569 15.5987 12.9309 15.6604 12.8652C15.7355 12.7852 15.7484 12.7303 15.7613 12.4349C15.7791 12.0282 15.7329 11.8559 15.5856 11.7798C15.4586 11.714 15.4148 11.7143 15.2911 11.7815ZM14.6275 15.5271C13.911 16.2438 13.3112 16.8303 13.2948 16.8303C13.2783 16.8303 13.2701 16.3945 13.2765 15.8619C13.2869 14.9996 13.2955 14.8797 13.3558 14.7669C13.4827 14.5291 13.5938 14.4124 13.7829 14.3181L13.9721 14.2239H14.9512H15.9304L14.6275 15.5271Z" fill="black" fill-opacity="0.4"/>
</svg>
