<svg width="19" height="20" viewBox="0 0 19 20" fill="none" xmlns="http://www.w3.org/2000/svg">
<path d="M14 4.61538C14 7.01959 11.9921 8.98077 9.5 8.98077C7.00789 8.98077 5 7.01959 5 4.61538C5 2.21118 7.00789 0.25 9.5 0.25C11.9921 0.25 14 2.21118 14 4.61538Z" stroke="black" stroke-opacity="0.4" stroke-width="0.5"/>
<path d="M18.75 15.3846C18.75 16.5096 17.8036 17.5997 16.1083 18.4233C14.43 19.2387 12.0939 19.75 9.5 19.75C6.90606 19.75 4.57 19.2387 2.89173 18.4233C1.19639 17.5997 0.25 16.5096 0.25 15.3846C0.25 14.2596 1.19639 13.1696 2.89173 12.3459C4.57 11.5306 6.90606 11.0192 9.5 11.0192C12.0939 11.0192 14.43 11.5306 16.1083 12.3459C17.8036 13.1696 18.75 14.2596 18.75 15.3846Z" stroke="black" stroke-opacity="0.4" stroke-width="0.5"/>
</svg>
